<?xml version="1.0" encoding="utf-8"?>
<!-- Generator: Adobe Illustrator 17.1.0, SVG Export Plug-In . SVG Version: 6.00 Build 0)  -->
<!DOCTYPE svg PUBLIC "-//W3C//DTD SVG 1.1//EN" "http://www.w3.org/Graphics/SVG/1.1/DTD/svg11.dtd">
<svg version="1.1" id="レイヤー_1" xmlns="http://www.w3.org/2000/svg" xmlns:xlink="http://www.w3.org/1999/xlink" x="0px"
	 y="0px" width="176.9px" height="23px" viewBox="0 0 176.9 23" enable-background="new 0 0 176.9 23" xml:space="preserve">
<path fill="#F7F9F9" d="M160.7,1c-0.1,0.5-0.2,0.6-0.2,0.6v1c0,2.4-0.3,4,0.7,4.4c1.8,0.8,2,1,2,7.4s0,6.7-1,7.2s-1.8,0.6-2.6,0.6
	s-1.6-0.1-2.6-0.6s-1-0.8-1-7.2s0.3-6.7,2-7.4c1-0.4,0.7-2,0.7-4.4v-1c0,0-0.1-0.1-0.2-0.6c0,0-0.2-0.4,1.1-0.4
	C160.9,0.6,160.7,1,160.7,1"/>
<path fill="#F7F9F9" d="M174.4,11.4c0,0-1.3,0.7-3.7,0.7c-2.3,0-3.4-0.7-3.4-0.7s1.6-0.5,3.4-0.5C172.6,10.9,174.4,11.4,174.4,11.4"
	/>
<path fill="#F7F9F9" d="M170.8,13.8c1.9,0,3.7-0.7,3.7-0.7s0.7,5.2-0.3,8.5c0,0-1.3,0.5-3.2,0.5c0,0-1.9,0.1-3.8-0.6
	c-1-3.3,0-8.5,0-8.5S168.9,13.8,170.8,13.8"/>
<g>
	<path fill="#F7F9F9" d="M3,4.2c0.3,0,0.4,0.1,0.8,0.1c1.9,0,3.8-0.3,4.4-0.8L8.9,5C8,5.9,7.6,6.4,6.9,7.6c-1.5,2.6-2.3,5.2-2.3,7.7
		c0,2.9,1.4,5,3.3,5c1.5,0,2.9-1.3,3.5-3.3c0.4-1.4,0.6-3,0.6-5c0-2.8-0.4-5.9-1-7.7l1.2-0.6c0.3,1.2,0.9,3,1.6,4.4
		c0.7,1.5,1.4,2.5,2.4,3.7c0.3,0.3,0.4,0.4,0.6,0.6l-0.6,1.7c-0.3-0.4-0.3-0.4-0.7-0.9C14.6,12,14,11,13.4,9.7
		c-0.3-0.6-0.4-0.9-0.6-1.4c-0.2-0.6-0.2-0.6-0.3-1c0.5,2.3,0.7,3.6,0.7,5.5c0,1.8-0.2,3.4-0.7,4.9c-0.7,2.5-2.5,4.2-4.5,4.2
		c-2.6,0-4.5-2.7-4.5-6.7c0-2.6,0.8-5.4,2.2-8c0.6-1,0.6-1,1.5-2.1C6,5.6,5.9,5.6,3.5,5.8c-0.3,0-0.3,0-0.5,0V4.2z M14.3,2.7
		C15,4,15.4,4.8,15.9,6.2l-0.8,0.6c-0.5-1.5-0.9-2.4-1.6-3.6L14.3,2.7z M15.9,1.5c0.7,1.1,1.1,2,1.6,3.4l-0.8,0.7
		c-0.5-1.3-0.9-2.3-1.6-3.5L15.9,1.5z"/>
	<path fill="#F7F9F9" d="M24,2.6c-0.2,0.6-0.2,0.6-1.9,6.6c-0.5,1.9-0.5,1.9-1.2,4c0,0.1-0.1,0.3-0.2,0.5s-0.1,0.2-0.2,0.4h0.1
		c1.1-2.3,2-3.1,3.2-3.1c0.7,0,1.4,0.6,1.7,1.4c0.2,0.6,0.3,1.3,0.3,2.7v1.6c0,1.2,0.1,1.8,0.3,2.3s0.7,0.7,1.3,0.7
		c1.2,0,2.1-1,2.7-3c0.4-1.1,0.5-2.1,0.6-3.4c0.4,0.6,0.6,0.8,1.1,1.2c-0.3,1.9-0.7,3.1-1.2,4.2c-0.8,1.7-2,2.6-3.3,2.6
		c-1.2,0-2.1-0.8-2.5-2.2c-0.1-0.5-0.2-1.2-0.2-2.6v-1.4c0-1,0-1.4-0.1-1.8c-0.2-0.6-0.5-0.9-1-0.9c-1,0-2.1,1.3-3,3.6
		c-0.6,1.3-1.3,4.1-1.5,5.5l-1.3-0.6c0.2-0.7,0.2-0.7,2.6-9.9c1.8-6.9,2.2-8.4,2.3-9.2L24,2.6z"/>
	<path fill="#F7F9F9" d="M38,12.1c0,1.1-0.6,2-1.4,2s-1.4-0.9-1.4-2s0.6-2,1.4-2S38,11.1,38,12.1z"/>
	<path fill="#F7F9F9" d="M45.2,5.8c-0.6,1.5-1,2.4-2,3.8c-0.3-0.4-0.6-0.7-0.9-1c1.3-1.7,2.1-3.5,2.8-5.9C45.3,2,45.4,1.6,45.4,1
		l1.2,0.4c0,0.2,0,0.2-0.2,0.6c0,0-0.1,0.2-0.1,0.4c0,0.1-0.1,0.2-0.1,0.4c-0.2,0.7-0.3,1-0.5,1.6h8.2c0.7,0,1.1,0,1.5-0.1V6
		c-0.5-0.1-0.8-0.1-1.5-0.1h-4.2v4.8h5.2c0.7,0,1.3,0,1.7-0.1v1.7c-0.5-0.1-1-0.1-1.7-0.1h-5.2v7.7H54V16c0-0.8,0-1.3-0.1-1.8h1.3
		c-0.1,0.5-0.1,1-0.1,1.9v4.8c0,0.9,0,1.4,0.1,2.1H54v-1.7h-9.5V23h-1.2c0.1-0.6,0.1-1.1,0.1-2.1v-4.8c0-0.8,0-1.3-0.1-1.8h1.3
		c-0.1,0.5-0.1,0.9-0.1,1.8V20h4.1v-7.7h-5.1c-0.7,0-1.2,0-1.7,0.1v-1.7c0.5,0.1,1,0.1,1.7,0.1h5.1v-5H45.2z"/>
	<path fill="#F7F9F9" d="M63.2,12.1c0,1.1-0.6,2-1.4,2s-1.4-0.9-1.4-2s0.6-2,1.4-2S63.2,11.1,63.2,12.1z"/>
	<path fill="#F7F9F9" d="M66.7,14c0.2-0.2,0.4-0.3,0.6-0.6c0.5-0.7,2-3.3,2.9-4.9c0.9-1.8,1.4-2.3,2.1-2.3s1,0.3,2.2,2.2
		c1.8,2.9,3.9,5.7,5.7,7.8c0.8,0.9,1.1,1.2,1.4,1.4l-0.6,2c-0.4-0.5-0.4-0.5-1.5-1.8c-1.6-1.8-3.4-4.5-5.7-7.9
		c-1.1-1.7-1.2-1.8-1.5-1.8c-0.3,0-0.4,0.1-1.2,1.5c-0.6,1.2-2,3.7-3,5.3c-0.2,0.4-0.3,0.5-0.5,0.9L66.7,14z M80.4,6.9
		c0,1.4-0.8,2.5-1.7,2.5c-0.9,0-1.7-1.1-1.7-2.5s0.8-2.5,1.7-2.5C79.6,4.4,80.4,5.5,80.4,6.9z M77.6,6.9c0,0.8,0.5,1.5,1,1.5
		c0.6,0,1-0.6,1-1.5c0-0.8-0.5-1.5-1-1.5S77.6,6,77.6,6.9z"/>
	<path fill="#F7F9F9" d="M84.8,8.1c0.7,1.7,1,2.8,1.7,5.3L85.3,14c-0.4-2.1-0.9-3.7-1.6-5.4L84.8,8.1z M94.2,7.9
		c-0.1,0.4-0.1,0.4-0.4,1.9c-0.3,1.7-0.9,3.9-1.5,5.4c-1.2,2.9-3,5.1-5.6,6.9c-0.3-0.6-0.4-0.8-0.8-1.3c2.6-1.7,4.2-3.5,5.3-6.3
		c0.6-1.5,1.1-3.3,1.4-5.2c0.1-0.8,0.2-1.3,0.2-1.6v0c0-0.1,0-0.1,0-0.1L94.2,7.9z M88.2,7.1c0.9,2.3,1.2,3.2,1.6,5.2l-1.1,0.6
		c-0.3-1.7-0.8-3.5-1.5-5.3L88.2,7.1z"/>
	<path fill="#F7F9F9" d="M99,22c0.1-0.6,0.1-1.2,0.1-2.5V4.6c0-1.3,0-1.8-0.1-2.4h1.4c-0.1,0.6-0.1,1.1-0.1,2.5v4.5
		c2.6,1.3,4.5,2.6,7.5,5.1l-0.7,1.7c-1.6-1.6-3.9-3.4-6.3-4.8c-0.3-0.1-0.4-0.2-0.5-0.4l0,0c0,0.5,0.1,0.8,0.1,1.4v7.2
		c0,1.3,0,1.9,0.1,2.5H99V22z"/>
	<path fill="#F7F9F9" d="M114.2,10.6c-0.1,0.3-0.1,0.3-0.3,1.4c-0.6,3.2-1.5,5.8-2.9,8.3c-0.4-0.5-0.6-0.7-1.1-1
		c0.7-1.1,1.1-1.8,1.6-3.1c0.8-2.1,1.4-4.5,1.5-6.1L114.2,10.6z M116.6,4.7c0-1.2,0-1.8-0.1-2.4h1.4c-0.1,0.6-0.1,1.1-0.1,2.5v1.6
		h4.2c1,0,1.4,0,2-0.1V8c-0.6-0.1-1-0.1-1.9-0.1h-4.3v12c0,1.3,0,1.9,0.1,2.5h-1.4c0.1-0.6,0.1-1.3,0.1-2.5v-12h-4.1
		c-0.9,0-1.4,0-1.9,0.1V6.2c0.6,0.1,1,0.1,1.9,0.1h4.1V4.7z M121.3,10.1c0.1,0.7,0.3,1.4,0.6,2.7c0.8,2.8,1.5,4.6,2.6,6.4
		c-0.5,0.4-0.6,0.6-1.1,1.1c-0.8-1.5-1.2-2.5-1.7-4.1c-0.4-1.2-0.9-3-1.2-4.1c-0.2-0.7-0.3-1.2-0.4-1.6L121.3,10.1z M121.6,1.5
		c0.6,1.1,0.9,1.8,1.4,3.3l-0.9,0.6c-0.5-1.4-0.9-2.3-1.4-3.3L121.6,1.5z M123.4,0.6c0.6,1.1,0.9,1.8,1.5,3.3L124,4.5
		c-0.5-1.3-0.9-2.3-1.4-3.3L123.4,0.6z"/>
	<path fill="#F7F9F9" d="M128.5,22c0.1-0.6,0.1-1.2,0.1-2.5V4.6c0-1.3,0-1.8-0.1-2.4h1.4c-0.1,0.6-0.1,1.1-0.1,2.5v4.5
		c2.6,1.3,4.5,2.6,7.5,5.1l-0.7,1.7c-1.6-1.6-3.9-3.4-6.3-4.8c-0.3-0.1-0.4-0.2-0.5-0.4l0,0c0,0.5,0.1,0.8,0.1,1.4v7.2
		c0,1.3,0,1.9,0.1,2.5h-1.5V22z"/>
	<path fill="#F7F9F9" d="M143.5,3.1c-0.1,0.6-0.1,0.6-0.1,2.1c-0.1,6.5-0.3,8.3-0.9,10.7c-0.6,2.2-1.4,3.8-2.9,5.9
		c-0.3-0.6-0.5-0.8-1-1.3c1.4-1.6,2.3-3.3,2.8-5.5c0.5-2.1,0.8-5.2,0.8-10.3c0-0.9,0-1.2-0.1-1.7L143.5,3.1z M147.7,2.8
		c-0.1,0.6-0.1,1-0.1,2.1l-0.1,14.5c1.4-0.7,2.3-1.5,3.1-2.8c0.9-1.4,1.6-3,2-4.8c0.4,0.6,0.5,0.9,0.9,1.4c-0.8,2.8-1.9,4.8-3.4,6.2
		c-0.7,0.7-1.4,1.2-2.4,1.8c-0.3,0.2-0.3,0.2-0.5,0.3c-0.2,0.1-0.2,0.1-0.4,0.3l-0.7-1.1c0.1-0.4,0.1-0.6,0.1-1.6l0.1-14
		c0-1.6,0-1.6-0.1-2.1L147.7,2.8z"/>
</g>
</svg>
