<?xml version="1.0" encoding="utf-8"?>
<!-- Generator: Adobe Illustrator 17.1.0, SVG Export Plug-In . SVG Version: 6.00 Build 0)  -->
<!DOCTYPE svg PUBLIC "-//W3C//DTD SVG 1.1//EN" "http://www.w3.org/Graphics/SVG/1.1/DTD/svg11.dtd">
<svg version="1.1" id="レイヤー_1" xmlns="http://www.w3.org/2000/svg" xmlns:xlink="http://www.w3.org/1999/xlink" x="0px"
	 y="0px" width="240.8px" height="23px" viewBox="0 0 240.8 23" enable-background="new 0 0 240.8 23" xml:space="preserve">
<path fill="#F7F9F9" d="M8.4,0.7C8.3,1.2,8.2,1.3,8.2,1.3v1c0,2.4-0.3,4.1,0.7,4.5c1.8,0.8,2,1,2,7.5s0,6.8-1,7.3s-1.8,0.6-2.6,0.6
	s-1.6-0.1-2.6-0.6s-1-0.8-1-7.3s0.3-6.8,2-7.5c1-0.4,0.7-2,0.7-4.5v-1c0,0-0.1-0.1-0.2-0.6c0,0-0.2-0.4,1.1-0.4S8.4,0.7,8.4,0.7"/>
<path fill="#F7F9F9" d="M22.5,9.9c0,0-1.5,0.8-4.4,0.8c-2.7,0-4-0.8-4-0.8s1.9-0.6,4-0.6C20.3,9.3,22.5,9.9,22.5,9.9"/>
<path fill="#F7F9F9" d="M18.2,12.4c2.2,0,4.4-0.8,4.4-0.8s0.8,6.1-0.4,10c0,0-1.5,0.6-3.8,0.6c0,0-2.2,0.1-4.5-0.7
	c-1.2-3.9,0-10,0-10S16,12.4,18.2,12.4"/>
<g>
	<path fill="#F7F9F9" d="M34.6,4.2c0.4,0,0.6,0.1,1.1,0.1c2.7,0,5.4-0.3,6.3-0.8L43,5c-1.2,0.9-1.7,1.3-2.7,2.6
		c-2.2,2.6-3.3,5.2-3.3,7.7c0,2.9,2,5,4.7,5c2.1,0,4.1-1.3,4.9-3.3c0.6-1.4,0.9-3,0.9-5c0-2.8-0.6-5.9-1.5-7.7l1.7-0.6
		c0.4,1.2,1.3,3,2.3,4.4c1,1.5,2,2.5,3.5,3.7c0.4,0.3,0.5,0.4,0.9,0.6l-1,1.5c-0.4-0.4-0.4-0.4-1-0.9c-1.3-1.2-2.2-2.2-3-3.5
		c-0.4-0.6-0.6-0.9-0.8-1.3c-0.3-0.5-0.3-0.5-0.5-0.9c0.7,2.3,1,3.6,1,5.5c0,1.8-0.3,3.4-0.9,4.9c-1.1,2.5-3.6,4.2-6.4,4.2
		c-3.8,0-6.4-2.7-6.4-6.7c0-2.6,1.1-5.4,3.2-8c0.8-1,0.8-1,2.2-2.1c-1.7,0.5-1.9,0.5-5.4,0.7c-0.5,0-0.5,0-0.7,0L34.6,4.2z
		 M50.7,2.7C51.8,4,52.2,4.8,53,6.2l-1.2,0.6c-0.8-1.5-1.4-2.4-2.3-3.6L50.7,2.7z M52.9,1.5c1,1.1,1.6,2,2.3,3.4L54,5.6
		c-0.6-1.3-1.3-2.3-2.3-3.5L52.9,1.5z"/>
	<path fill="#F7F9F9" d="M64.1,2.6c-0.3,0.6-0.3,0.6-2.7,6.6c-0.7,1.9-0.7,1.9-1.7,4c0,0.1-0.1,0.3-0.3,0.5
		c-0.1,0.2-0.1,0.2-0.2,0.4h0.1c1.6-2.3,2.8-3.1,4.5-3.1c1,0,2,0.6,2.4,1.4c0.3,0.6,0.4,1.3,0.4,2.7v1.6c0,1.2,0.1,1.8,0.4,2.3
		s1,0.7,1.8,0.7c1.7,0,3-1,3.8-3c0.5-1.1,0.8-2.1,0.9-3.4c0.6,0.6,0.9,0.8,1.6,1.2c-0.5,1.9-1,3.1-1.7,4.2c-1.1,1.7-2.8,2.6-4.8,2.6
		c-1.8,0-3-0.8-3.5-2.2c-0.1-0.5-0.2-1.2-0.2-2.6v-1.4c0-1,0-1.4-0.2-1.8c-0.2-0.6-0.6-0.9-1.4-0.9c-1.4,0-3,1.3-4.3,3.6
		c-0.8,1.3-1.9,4.1-2.2,5.5L55,20.9c0.3-0.7,0.3-0.7,3.8-9.9c2.6-6.9,3.1-8.4,3.3-9.2L64.1,2.6z"/>
	<path fill="#F7F9F9" d="M81.7,12.1c0,1.1-0.9,2-2,2s-2-0.9-2-2s0.9-2,2-2C80.8,10.1,81.7,11.1,81.7,12.1z"/>
	<path fill="#F7F9F9" d="M91,5.8c-0.8,1.5-1.5,2.3-2.9,3.8c-0.4-0.4-0.8-0.8-1.3-1.1c1.9-1.7,3.1-3.5,4-5.9c0.3-0.6,0.4-1,0.5-1.6
		L93,1.4c-0.1,0.2-0.1,0.2-0.3,0.6c0,0-0.1,0.2-0.2,0.4c0,0.1-0.1,0.2-0.2,0.4c-0.3,0.7-0.4,1-0.7,1.6h11.8c1.1,0,1.6,0,2.2-0.1V6
		c-0.7-0.1-1.2-0.2-2.2-0.2h-5.9v4.8h7.5c1.1,0,1.8,0,2.4-0.1v1.7c-0.7-0.1-1.4-0.1-2.4-0.1h-7.5v7.7h6.1v-3.9c0-0.8,0-1.3-0.1-1.8
		h1.8c-0.1,0.5-0.1,1-0.1,1.9v4.8c0,0.9,0,1.4,0.1,2.1h-1.7v-1.7H90v1.7h-1.7c0.1-0.6,0.1-1.1,0.1-2.1V16c0-0.8,0-1.3-0.1-1.8h1.8
		C90,14.7,90,15.1,90,16v3.9h5.9v-7.7h-7.3c-1,0-1.7,0-2.4,0.1v-1.7c0.6,0.1,1.4,0.1,2.4,0.1h7.3V5.8H91z"/>
	<path fill="#F7F9F9" d="M115.3,12.1c0,1.1-0.9,2-2,2s-2-0.9-2-2s0.9-2,2-2S115.3,11.1,115.3,12.1z"/>
	<path fill="#F7F9F9" d="M118.8,14c0.3-0.2,0.5-0.3,0.8-0.6c0.7-0.7,2.9-3.3,4.1-4.9c1.3-1.8,2-2.3,3-2.3s1.4,0.3,3.1,2.2
		c2.6,2.9,5.6,5.7,8.2,7.8c1.1,0.9,1.5,1.2,2,1.4l-0.9,2c-0.5-0.5-0.6-0.5-2.1-1.8c-2.2-1.8-4.9-4.5-8.1-7.9
		c-1.6-1.7-1.7-1.8-2.2-1.8s-0.6,0.1-1.7,1.5c-0.9,1.2-2.9,3.7-4.3,5.3c-0.3,0.4-0.4,0.5-0.7,0.9L118.8,14z M138.4,6.9
		c0,1.4-1.1,2.5-2.5,2.5s-2.5-1.1-2.5-2.5s1.1-2.5,2.5-2.5S138.4,5.5,138.4,6.9z M134.5,6.9c0,0.8,0.7,1.5,1.5,1.5s1.5-0.6,1.5-1.5
		c0-0.8-0.6-1.5-1.5-1.5C135.1,5.4,134.5,6,134.5,6.9z"/>
	<path fill="#F7F9F9" d="M143.7,8.1c1,1.7,1.5,2.8,2.4,5.3l-1.7,0.6c-0.6-2.1-1.2-3.7-2.3-5.4L143.7,8.1z M157.2,7.9
		c-0.1,0.4-0.1,0.4-0.5,1.9c-0.4,1.7-1.2,3.9-2.1,5.4c-1.7,2.9-4.2,5.1-7.9,6.9c-0.4-0.6-0.6-0.8-1.1-1.3c3.7-1.7,6-3.5,7.6-6.3
		c0.9-1.5,1.6-3.3,2-5.2c0.2-0.8,0.3-1.3,0.3-1.6l0,0c0-0.1,0-0.1,0-0.1L157.2,7.9z M148.6,7.1c1.3,2.3,1.7,3.2,2.3,5.2l-1.6,0.6
		c-0.4-1.7-1.2-3.5-2.2-5.3L148.6,7.1z"/>
	<path fill="#F7F9F9" d="M161.1,22c0.1-0.6,0.1-1.2,0.1-2.5V4.6c0-1.3,0-1.8-0.1-2.4h2.1c-0.1,0.6-0.1,1.1-0.1,2.5v4.5
		c3.7,1.3,6.5,2.6,10.7,5.1l-1,1.8c-2.3-1.6-5.6-3.4-9-4.8c-0.4-0.1-0.5-0.2-0.7-0.4l0,0c0.1,0.5,0.1,0.8,0.1,1.4v7.2
		c0,1.3,0,1.9,0.1,2.5C163.2,22,161.1,22,161.1,22z"/>
	<path fill="#F7F9F9" d="M181.9,10.6c-0.1,0.3-0.1,0.3-0.4,1.4c-0.9,3.2-2.2,5.8-4.2,8.3c-0.6-0.5-0.8-0.7-1.6-1
		c1.1-1.1,1.6-1.8,2.3-3.1c1.1-2.1,1.9-4.5,2.1-6.1L181.9,10.6z M185.2,4.7c0-1.2,0-1.8-0.1-2.4h2C187,2.9,187,3.4,187,4.8v1.6h6
		c1.4,0,2,0,2.8-0.1V8c-0.8-0.1-1.5-0.1-2.8-0.1h-6.1v12c0,1.3,0,1.9,0.1,2.5h-2c0.1-0.6,0.1-1.3,0.1-2.5v-12h-5.8
		c-1.3,0-1.9,0-2.8,0.1V6.2c0.8,0.1,1.4,0.1,2.8,0.1h5.9V4.7z M192.1,10.1c0.1,0.7,0.4,1.4,0.9,2.7c1.1,2.8,2.1,4.6,3.7,6.4
		c-0.7,0.4-0.9,0.6-1.5,1.1c-1.1-1.5-1.7-2.5-2.5-4.1c-0.6-1.2-1.3-3-1.7-4.1c-0.3-0.7-0.4-1.2-0.6-1.6L192.1,10.1z M192.5,1.5
		c0.9,1.1,1.3,1.8,2.1,3.3l-1.3,0.6c-0.7-1.4-1.2-2.3-2-3.3L192.5,1.5z M195,0.6c0.9,1.1,1.3,1.8,2.1,3.3l-1.3,0.6
		c-0.6-1.3-1.2-2.3-2-3.3L195,0.6z"/>
	<path fill="#F7F9F9" d="M201.2,22c0.1-0.6,0.1-1.2,0.1-2.5V4.6c0-1.3,0-1.8-0.1-2.4h2.1c-0.1,0.6-0.1,1.1-0.1,2.5v4.5
		c3.7,1.3,6.5,2.6,10.7,5.1l-1,1.8c-2.3-1.6-5.6-3.4-9-4.8c-0.4-0.1-0.5-0.2-0.7-0.4l0,0c0.1,0.5,0.1,0.8,0.1,1.4v7.2
		c0,1.3,0,1.9,0.1,2.5C203.5,22,201.2,22,201.2,22z"/>
	<path fill="#F7F9F9" d="M222.8,3.1c-0.1,0.6-0.1,0.6-0.1,2.1c-0.2,6.5-0.4,8.3-1.3,10.7c-0.8,2.2-2,3.8-4.2,5.9
		c-0.5-0.6-0.7-0.8-1.4-1.3c2-1.6,3.3-3.3,4.1-5.5c0.7-2.1,1.1-5.2,1.1-10.3c0-0.9,0-1.2-0.1-1.7L222.8,3.1z M228.8,2.8
		c-0.1,0.6-0.1,1-0.1,2.1l-0.1,14.5c2-0.7,3.2-1.5,4.5-2.8c1.3-1.4,2.3-3,2.8-4.8c0.5,0.6,0.7,0.9,1.3,1.4c-1.2,2.8-2.8,4.8-4.8,6.2
		c-1.1,0.7-2,1.2-3.4,1.8c-0.4,0.2-0.4,0.2-0.8,0.3c-0.3,0.1-0.3,0.1-0.6,0.3l-1-1.1c0.1-0.4,0.2-0.6,0.2-1.6l0.1-14
		c0-1.6,0-1.6-0.1-2.1L228.8,2.8z"/>
</g>
</svg>
