<?xml version="1.0" encoding="utf-8"?>
<!-- Generator: Adobe Illustrator 17.1.0, SVG Export Plug-In . SVG Version: 6.00 Build 0)  -->
<!DOCTYPE svg PUBLIC "-//W3C//DTD SVG 1.1//EN" "http://www.w3.org/Graphics/SVG/1.1/DTD/svg11.dtd">
<svg version="1.1" id="レイヤー_1" xmlns="http://www.w3.org/2000/svg" xmlns:xlink="http://www.w3.org/1999/xlink" x="0px"
	 y="0px" width="130.1px" height="24.9px" viewBox="0 0 130.1 24.9" enable-background="new 0 0 130.1 24.9" xml:space="preserve">
<g>
	<path fill="#F7F9F9" d="M40.4,7.7c0.6,2,1.5,3.5,2.9,5c-0.4,0.5-0.5,0.6-0.8,1.3c-1-1.4-1.5-2.4-2.2-4.3c0.1,2.5,0.1,2.9,0.1,3.9
		v7.2c0,1.3,0,2.1,0.1,2.8h-1.8c0.1-0.7,0.1-1.5,0.1-2.8V14c0-0.9,0-2.1,0.1-3.9c-0.9,3.7-1.7,5.6-3.1,7.8c-0.3-0.6-0.5-0.9-0.9-1.4
		c1.1-1.4,1.9-3,2.7-5.3c0.4-1.2,0.7-2.4,1-3.5h-1.1c-0.8,0-1.3,0-2,0.1V6.3c0.6,0.1,1.2,0.1,2,0.1h1.3V4c0-1.1,0-1.7-0.1-2.3h1.8
		c-0.1,0.6-0.1,1.3-0.1,2.2v2.5h1.1c0.7,0,1.1,0,1.6-0.1v1.5c-0.5-0.1-0.9-0.1-1.5-0.1H40.4z M48.6,4.2c0-1.1,0-1.8-0.2-2.4h1.8
		c-0.1,0.6-0.1,1.2-0.1,2.4v1.2h4.1c1.1,0,1.8,0,2.5-0.1V7c-0.7-0.1-1.4-0.1-2.5-0.1h-4.1v3.9h2.6c0.8,0,1.3,0,1.7-0.1l0.8,0.9
		c-0.3,0.5-0.3,0.5-0.8,1.4c-1.1,2-2.2,3.5-3.8,5.1c2,1.8,3.9,2.8,6.7,3.7c-0.4,0.5-0.6,0.9-0.9,1.6c-2.9-1.2-5-2.5-6.8-4.3
		c-2.2,1.9-4.3,3.2-7,4.2c-0.2-0.6-0.5-1-0.8-1.4c2.7-0.9,4.9-2.1,6.9-3.8c-1.6-1.9-2.5-3.5-3.4-6c-0.8,0-1,0-1.4,0.1v-1.6
		c0.5,0.1,1.1,0.1,2.1,0.1h2.8V6.8H46c-1.2,0-1.9,0-2.5,0.1V5.3C44,5.4,44.8,5.4,46,5.4h2.6V4.2z M46.6,12c0.7,2.1,1.7,3.7,3,5.1
		c1.5-1.5,2.7-3.2,3.6-5.1C53.2,12,46.6,12,46.6,12z"/>
	<path fill="#F7F9F9" d="M66,12.6c0,1.1-0.9,2-2,2s-2-0.9-2-2s0.9-2,2-2S66,11.5,66,12.6z"/>
	<path fill="#F7F9F9" d="M90,16.5c1.3,0,2,0,2.7-0.1V18c-0.8-0.1-1.6-0.1-2.7-0.1h-6.5c1.8,1.2,2.7,1.7,4.2,2.3
		c1.7,0.7,3,1.1,5.5,1.6c-0.5,0.5-0.6,0.8-0.9,1.4c-4.3-1.1-6.9-2.4-9.6-4.6c0.1,1,0.1,1.5,0.1,1.9v1c0,1.2,0,1.6,0.1,2.2h-1.7
		c0.1-0.7,0.1-1.3,0.1-2.2v-1c0-0.4,0-1.1,0.1-1.9c-1.3,1.1-2.9,2.1-4.8,3c-1.3,0.6-1.9,0.8-4.4,1.6c-0.3-0.6-0.6-0.9-1-1.3
		c4.1-0.9,6.3-1.8,9.3-4h-6.3c-1.1,0-1.8,0-2.7,0.1v-1.6c0.7,0.1,1.4,0.1,2.7,0.1h7c0-0.7,0-1-0.1-1.5h1.6c-0.1,0.5-0.1,1-0.1,1.4
		v0.1C82.6,16.5,90,16.5,90,16.5z M90,8c1.3,0,2,0,2.7-0.1v1.5C92,9.2,91.3,9.2,90,9.2h-1.2v1.3c0,0.7,0,1.2,0.1,1.5
		c-0.7,0-1.5-0.1-2.4-0.1h-3.3c-0.9,0-1.6,0-2.4,0.1c0-0.4,0.1-0.9,0.1-1.5V9.2h-4.3v4.1h12.1c1.4,0,2.1,0,2.7-0.1v1.5
		c-0.8-0.1-1.5-0.1-2.6-0.1H77.5c-0.9,0-1.5,0-2.4,0.1c0-0.6,0.1-1,0.1-1.6V9.2H74c-1.2,0-1.9,0-2.6,0.1V7.8
		c0.6,0.1,1.3,0.1,2.5,0.1h1.3V7.7c0-0.7,0-1.2-0.1-1.6h1.7c-0.1,0.5-0.1,0.9-0.1,1.6V8H81V7.8c0-0.7,0-1.1-0.1-1.6h1.6
		c-0.1,0.4-0.1,0.9-0.1,1.6V8h5V7.7c0-0.6,0-1.1-0.1-1.6h1.6c-0.1,0.5-0.1,1-0.1,1.6v0.2H90V8z M79.2,5c0,0.7,0,1,0.1,1.4h-1.6
		c0-0.4,0.1-0.9,0.1-1.4V4.8h-3.7c-1.2,0-2,0-2.7,0.1V3.4c0.6,0.1,1.5,0.1,2.7,0.1h3.7V3.1c0-0.5,0-1-0.1-1.5h1.7
		c-0.1,0.6-0.1,1-0.1,1.5v0.4h5.5V3.1c0-0.5,0-0.9-0.1-1.5h1.7c-0.1,0.5-0.1,1-0.1,1.5v0.4H90c1.2,0,2,0,2.7-0.1v1.5
		C92,4.8,91.2,4.8,90,4.8h-3.8V5c0,0.6,0,0.9,0.1,1.4h-1.6c0.1-0.5,0.1-0.8,0.1-1.4V4.8h-5.5L79.2,5L79.2,5z M82.3,10.8h5V9.2h-5
		V10.8z"/>
	<path fill="#F7F9F9" d="M102,12.6c0,1.1-0.9,2-2,2s-2-0.9-2-2s0.9-2,2-2S102,11.5,102,12.6z"/>
	<path fill="#F7F9F9" d="M113.8,3.4c0-0.5,0-0.9-0.1-1.5h1.7c-0.1,0.6-0.1,1-0.1,1.5v0.5h5.5V3.4c0-0.5,0-0.9-0.1-1.5h1.7
		c-0.1,0.6-0.1,1-0.1,1.5v0.5h3.8c1.3,0,2.1,0,2.7-0.1v1.6c-0.8-0.1-1.5-0.2-2.7-0.2h-3.9v0.4c0,0.6,0,1,0.1,1.5h-1.6
		c0-0.6,0.1-1,0.1-1.5V5.2h-5.5v0.4c0,0.6,0,1,0.1,1.5h-1.6c0.1-0.6,0.1-0.9,0.1-1.5V5.2h-3.5c-1.2,0-1.9,0-2.6,0.1V3.8
		c0.7,0.1,1.4,0.1,2.7,0.1h3.5V3.4H113.8z M112.5,15.9c-0.8,0-1.3,0-2,0.1c0-0.6,0.1-1.2,0.1-1.7v-5c0-0.5,0-1.1-0.1-1.7
		c0.6,0.1,0.9,0.1,2,0.1h11.2c1.1,0,1.4,0,2-0.1c0,0.6-0.1,1.1-0.1,1.7v5c0,0.6,0,1.1,0.1,1.7c-0.7,0-1.2-0.1-2-0.1h-5v2.3h7.6
		c1,0,1.8,0,2.4-0.1v1.7c-0.7-0.1-1.4-0.1-2.4-0.1h-7.6v1.7c0,1,0,1.7,0.2,2.4H117c0.1-0.7,0.1-1.4,0.1-2.4v-1.7h-7
		c-1,0-1.8,0-2.5,0.1v-1.7c0.7,0.1,1.4,0.1,2.5,0.1h7v-2.3H112.5z M112.1,11.2h12V9h-12V11.2z M112.1,14.7h12v-2.2h-12V14.7z"/>
</g>
<path fill="#F7F9F9" d="M14.2,0.3c-0.3,1-0.9,2.1-0.5,4.6c0.8,4.8-1,8.9-2.8,10.4c-0.8,0.6-3.4,0.8-4.5,0.8s-1.2,0.8-2.3,2.4
	c-0.8,1.3-0.5,1.7-0.5,1.7l-0.8-0.8c-0.8-0.8-0.2-0.7,0.6-1.7c1-1.2,1.9-1.9,1.4-2.6c-0.4-0.8-3.8-3.9-1-8.7c1-1.6,1.9-3.1,3.9-4.4
	c0.6-0.4,3.1-1.2,3.1-1.2L14.2,0.3z"/>
<g>
	<path fill="#F7F9F9" d="M19.3,12.3c0,0,0,0.2,0-1.6C19.4,9,19.4,8,20,7.1c0.6-1,0.8-2.8,0.2-4.1c-0.6-1.3-1-1.9-1-1.9
		S18.6,1.9,18,3.5c-0.7,2,0.6,3.6,1.6,4.4"/>
	<path fill="#F7F9F9" d="M18.7,3.8c-0.2,0.6-0.2,1.2,0,1.7s0.5,0.9,0.8,1.3l0,0c0.4-0.6,0.6-2,0.3-3.1c0-0.1-0.1-0.3-0.2-0.4
		c-0.1-0.3-0.3-0.6-0.4-0.8C19,2.9,18.8,3.3,18.7,3.8 M16.7,14.4l-0.5-0.3L16.7,14.4L16.7,14.4z M16.7,14.4l-0.1-0.6L16.7,14.4z
		 M17.3,14.3l-0.6,0.1L17.3,14.3z M18.8,12.7c-0.1-0.1-0.1-0.2-0.1-0.2c0-0.2,0-0.2,0-0.2l0,0l0,0l0,0l0,0l0,0v-0.2
		c0-0.2,0-0.6,0-1.3c0-1,0-1.8,0.2-2.6c-0.6-0.5-1.2-1.3-1.5-2.3c-0.2-0.7-0.3-1.6,0-2.5c0.6-1.7,1.2-2.6,1.3-2.6L19.3,0l0.5,0.9
		c0,0,0.4,0.6,1,1.9C20.9,2.9,21,3.1,21,3.3c0.4,1.5,0.2,3.1-0.4,4.2C20.1,8.2,20.1,9,20,10.7c0,0.7,0,1.1,0,1.3v0.2l0,0l0,0l0,0
		h-0.7l0.7,0.1v0.2c-0.1,0,0,0.2-0.4,0.4l0,0C19.2,13,18.8,12.8,18.8,12.7"/>
	<path fill="#F7F9F9" d="M29.4,12.8c-0.1,0-0.3,0.1-0.4,0c-0.4-0.1-0.8-0.2-1.3-0.3c-2-0.5-4.5-1-5.7-0.6c-0.1,0-0.2,0.1-0.3,0.1
		l-0.3,0.2c-0.1,0.1-0.2,0.1-0.3,0.2c-0.3,0.1-0.7,0-0.9-0.2c-0.3-0.4-0.3-0.9,0.1-1.2c0.2-0.2,0.4-0.3,0.6-0.4
		c1.9-0.9,4.6-0.3,6.7,0.2c0.6,0.2,1.2,0.3,1.7,0.4c0.5,0.1,0.8,0.5,0.7,1c-0.1,0.3-0.2,0.5-0.4,0.6C29.5,12.8,29.4,12.8,29.4,12.8z
		 M21.8,11.5c1.3-0.4,3.9,0.1,5.9,0.6c0.5,0.1,0.9,0.2,1.3,0.3c0.1,0,0.2,0,0.3,0c0.1-0.1,0.2-0.2,0.2-0.3c0-0.2-0.1-0.4-0.3-0.5
		c-0.5-0.1-1.1-0.2-1.8-0.4c-1.9-0.5-4.2-1-5.9-0.5c-0.2,0.1-0.3,0.1-0.5,0.2c-0.2,0.1-0.3,0.2-0.5,0.3c-0.2,0.2-0.2,0.4,0,0.6
		c0.1,0.2,0.4,0.2,0.6,0l0.3-0.2C21.6,11.6,21.7,11.6,21.8,11.5z"/>
	<path fill="#F7F9F9" d="M29,12.6c-2.2-0.5-6.1-1.6-7.5-0.8L21.2,12c-0.3,0.2-0.7,0.2-0.9-0.1c-0.2-0.3-0.2-0.7,0.1-0.9
		c0.2-0.1,0.3-0.3,0.5-0.4c2.4-1.2,6.2,0.3,8.3,0.6c0.3,0.1,0.6,0.4,0.5,0.7c0,0.2-0.2,0.4-0.3,0.4C29.3,12.6,29.2,12.7,29,12.6"/>
	<path fill="#F7F9F9" d="M30,2.4c-1.2-0.9-1.1-0.5-2.3,0.6c-1.2,1-5.5,3.6-10.4,10.6s-5.7,7.5-6,7.7c-0.3,0.1-0.6,3.1,0.5,3.4
		c1.9,0.5,1.1-2,1.4-2.2c0.6-0.3,10.9-15,14.1-16.4c3.1-1.4,3.8-2.3,3.8-2.3L30,2.4z"/>
</g>
<path fill="#FFFFFF" d="M5.3,15.4l0.3-0.2c0.2-2,1.7-10.9,7.7-14.1L13.5,1l0.3,0.6l-0.2,0.1C7.3,4.9,6.3,15.2,6.3,15.3v0.2L5.3,15.4
	z"/>
<path fill="#FFFFFF" d="M5.8,15.3c0,0,1-10.6,7.6-14l0.1,0.3C7.2,4.8,6.1,15.3,6.1,15.3H5.8z"/>
<path fill="#FFFFFF" d="M6.5,12.5c0,0,2.4-0.9,3.7-0.9"/>
<path fill="#FFFFFF" d="M6.2,12.2h0.3c0.7-0.3,2.6-1,3.8-1.1c1.4-0.1,2.5,0.3,2.5,0.3l-0.4,0.7c0,0-1.1-0.3-2.1-0.2
	s-3.2,0.8-3.6,0.9l-0.2,0.3L6.2,12.2z"/>
<path fill="#FFFFFF" d="M6.8,12.4l-0.2-0.2C6.2,11.5,5.3,9.8,4.4,9L4.2,8.9L3.7,9.4l0.1,0.1c0.8,0.7,1.9,2.7,2.1,3l-0.1,0.3
	L6.8,12.4z"/>
<path fill="#FFFFFF" d="M6.5,12.4c0,0,2.4-0.9,3.8-0.9v0.3c-1.3,0-3.7,0.9-3.7,0.9l0,0L6.5,12.4z"/>
<path fill="#FFFFFF" d="M7.3,9.2H7.2L7.1,9C7,8.5,6.4,6.8,5.5,6.1L5.4,6l0.5-0.5H6c1,0.9,1.6,2.6,1.8,3.3L8,9H7.7L7.3,9.2z"/>
<path fill="#FFFFFF" d="M5.7,5.9l0.2-0.2c1.2,1,1.7,3.2,1.8,3.2L7.3,9C7.3,9,6.7,6.8,5.7,5.9"/>
<path fill="#FFFFFF" d="M12.5,5.1C12,4.9,11.5,4.9,11,5c-1,0.2-1.8,0.8-1.8,0.9L9.1,5.8L8.9,5.9l0.6-1c0.4-0.2,0.8-0.4,1.3-0.5
	c0.7-0.2,1.4-0.2,2,0.1L13,4.6l-0.3,0.6L12.5,5.1z"/>
<path fill="#FFFFFF" d="M8,3.3c0.4,0.3,0.6,0.8,0.7,1.4c0.1,0.2,0.1,0.7,0.1,0.7l0.7-0.2c0,0-0.1-0.4-0.1-0.7
	c-0.2-0.7-0.5-1.2-1-1.7L8.3,2.7L7.8,3.2L8,3.3z"/>
<path fill="#FFFFFF" d="M8.9,5.5c0,0,0.9-0.7,2-1c0.6-0.1,1.2-0.2,1.8,0.1l-0.1,0.3c-0.6-0.2-1.1-0.2-1.7-0.1C9.9,5,9,5.7,9,5.7l0,0
	L8.9,5.5z"/>
<path fill="#FFFFFF" d="M7,9.1L7,9.1C7.1,9,8.9,7.8,11.6,7.8c0.5,0,1,0,1.5,0.1h0.2l-0.1,0.7H13c-0.5-0.1-0.9-0.1-1.4-0.1
	c-2.5,0-4,1-4.1,1.1L7.4,9.7L7,9.1z"/>
<path fill="#FFFFFF" d="M7.3,9.1c0,0,1.7-1.2,4.4-1.2c0.5,0,1,0,1.5,0.1l-0.1,0.3c-0.5-0.1-1-0.1-1.4-0.1c-2.6,0-4.2,1.1-4.2,1.1
	L7.3,9.1z"/>
</svg>
