<?xml version="1.0" encoding="utf-8"?>
<!-- Generator: Adobe Illustrator 17.1.0, SVG Export Plug-In . SVG Version: 6.00 Build 0)  -->
<!DOCTYPE svg PUBLIC "-//W3C//DTD SVG 1.1//EN" "http://www.w3.org/Graphics/SVG/1.1/DTD/svg11.dtd">
<svg version="1.1" id="レイヤー_1" xmlns="http://www.w3.org/2000/svg" xmlns:xlink="http://www.w3.org/1999/xlink" x="0px"
	 y="0px" width="107.1px" height="22px" viewBox="0 0 107.1 22" enable-background="new 0 0 107.1 22" xml:space="preserve">
<g>
	<path fill="#F7F9F9" d="M7.8,4.8c-0.1,0.1-0.1,0.1-0.6,1C6.8,6.7,6,7.9,5.3,8.9c-0.1,2.2-0.2,3.4-0.4,4.7c0.9,1.5,1.7,2.5,2.9,3.7
		c-0.3,0.4-0.6,0.8-0.9,1.3c-1-1.2-1.8-2.2-2.4-3.3c-0.8,3-1.4,4.4-3,6.4c-0.3-0.6-0.5-0.8-1-1.3c1-1.1,1.5-1.9,2.1-3.4
		c1.1-2.7,1.4-5.4,1.4-12.4c0-2.8,0-3.5-0.2-4.3h1.7C5.4,0.8,5.4,1.3,5.4,2v0.4c0,1.9,0,2.6,0,4.5C6,5.9,6.4,5,6.7,3.9L7.8,4.8z
		 M0.8,11.1C1.4,9.5,1.6,8,1.6,4.8l1.3,0.3C2.7,8.4,2.5,9.9,2,11.8L0.8,11.1z M6.3,21.1c1.4-1.8,2.1-3,2.7-5.4l1.2,0.5
		c-0.7,2.4-1.3,3.7-2.8,5.8L6.3,21.1z M9.3,8.5c0.2,0.1,0.4,0.3,0.5,0.3c0.9,0.6,0.9,0.7,1.4,1.1c0.4-0.7,0.7-1.2,1-1.8
		c-0.6-0.5-1.2-0.9-2-1.4l0.6-1c0.7,0.4,1.3,0.8,1.8,1.2c0.4-1,0.5-1.6,0.8-2.9h-2.7C9.9,6.2,9.2,7.5,7.7,9.4c-0.3-0.4-0.4-0.5-1-1
		c1.4-1.5,2.4-3.1,3-5.3c0.3-1.1,0.5-2,0.6-2.7l1.6,0.4c-0.2,0.5-0.2,0.5-0.6,2.1h1.4c0.7,0,1.2,0,1.7-0.1l0.6,0.6
		c0,0.2-0.1,0.5-0.3,1.3c0,0.2-0.1,0.4-0.2,0.8c0.5,0,0.7,0,1.1,0h1.2c0.1-1.2,0.2-2.2,0.2-3.5c0-0.6,0-1-0.1-1.6h1.6
		C18.3,1,18.3,1.3,18.3,2c0,1.3-0.1,2.3-0.2,3.5h2.1c0.9,0,1.6,0,2.2-0.1v1.5c-0.6-0.1-1.3-0.1-2.2-0.1h-2c0.9,3,2.3,5.2,4.7,7.1
		c-0.4,0.4-0.7,0.9-1,1.3c-2.2-2-3.5-4-4.4-6.8c-0.8,3.2-2,4.9-4.5,6.8c-0.4-0.5-0.6-0.7-1.1-1.1c1.8-1.1,2.8-2.2,3.6-4
		c0.5-1,0.7-1.8,0.9-3.3h-1.1c-0.6,0-0.9,0-1.4,0c-1.2,3.5-3.1,6.3-6,8.5c-0.3-0.4-0.6-0.7-1.1-1c1.5-1,2.5-1.9,3.6-3.4
		c-0.6-0.6-1.1-0.9-2-1.5L9.3,8.5z M12.5,21.7c-0.1-2.1-0.4-3.4-0.9-5.5l1.2-0.2c0.5,1.8,0.8,3.1,1.1,5.4L12.5,21.7z M16.8,21.6
		c-0.4-2.2-0.9-3.9-1.6-5.7l1.3-0.3c0.9,2.1,1.2,3.1,1.7,5.6L16.8,21.6z M21.6,21.7c-0.9-2.4-1.7-4-2.9-5.7l1.2-0.6
		c1.4,2.1,2,3.2,3,5.6L21.6,21.7z M20.1,1.1c1.1,1.2,1.5,1.8,2.3,3l-1.1,0.8c-0.6-1.2-1.2-2-2.3-3.2L20.1,1.1z"/>
	<path fill="#F7F9F9" d="M29.5,1.7c0.1,0.5,0.2,0.7,0.5,1.5c0.5,1.4,0.7,2.1,1.1,3.2c3.4-1,3.4-1,5.2-1.3c0-3.4,0-3.6-0.1-4.2h1.8
		c-0.1,0.6-0.1,1.4-0.1,3.2c0,0,0,0.5,0,0.8c0.7-0.1,1.2-0.1,1.8-0.1c3.2,0,5.3,1.7,5.3,4.4c0,2.9-2.4,4.9-5.6,4.9
		c-1.3,0-2.6-0.3-4.1-0.9c0-0.2,0-0.4,0-0.4c0-0.3,0-0.4-0.1-1.4c1.3,0.7,2.6,1.1,4,1.1c1,0,2.1-0.3,2.9-0.9
		c0.8-0.6,1.2-1.4,1.2-2.4c0-1.8-1.4-2.9-3.8-2.9c-1.8,0-4.3,0.6-7.8,1.7c1.2,4.1,2.1,7.5,3.1,12c0.1,0.5,0.2,0.6,0.3,1l-1.9,0.4
		c-0.1-2-1.5-7.8-3-13c-0.2,0.1-0.2,0.1-1.3,0.4c-1.4,0.5-2.6,1-3.3,1.3l-0.6-1.7c0.7-0.1,0.7-0.1,3.5-1.1C28.8,7,29,7,29.4,6.8
		c-0.7-2.4-1.3-3.8-1.7-4.6L29.5,1.7z"/>
	<path fill="#F7F9F9" d="M53.5,1.8c-0.1,0.8-0.1,0.8-0.2,5c3.9-0.2,4.8-0.3,7.8-0.4c0-0.1,0-0.2,0-0.3c0-0.1,0-0.2,0-0.4
		c0-0.3,0-0.5,0-0.8c0-2.2,0-2.9-0.1-3.6h1.8c-0.1,0.5-0.1,1.1-0.1,1.8v1l0,1.6v0.6c2.4,0,4.2-0.1,5-0.2l0,1.7c-0.6,0-0.8,0-1.8,0
		c-0.2,0-0.8,0-1.6,0c-0.4,0-0.9,0-1.7,0c0,2-0.2,3.7-0.4,4.7c-0.4,1.4-1.2,2.1-2.4,2.1c-0.9,0-1.9-0.3-3.3-1.1c0-0.4,0-0.5,0-0.7
		c0-0.3,0-0.5,0-1c1.3,0.9,2.4,1.3,3.1,1.3c0.7,0,1-0.4,1.2-1.6c0.2-1.1,0.2-1.8,0.3-3.7c-2.9,0.1-4.6,0.2-7.8,0.4
		c0,0.1,0,0.2,0,0.3c0,0.1,0,0.3,0,0.7c0,0.4,0,0.8,0,1.2c0,3.7,0.1,5.4,0.2,6c0.2,0.8,0.7,1.3,1.6,1.6c0.7,0.3,2.2,0.4,3.7,0.4
		c2.6,0,5.1-0.3,6.7-0.9l0.2,1.8c-0.3,0-0.4,0-1,0.1c-2.2,0.3-4.2,0.5-6.1,0.5c-4.3,0-6.1-0.8-6.7-3c-0.2-0.9-0.3-2.3-0.3-5.7
		c0-0.1,0-2.2,0-3c-2.4,0.2-3.7,0.3-4.8,0.5l-0.1-1.7c0.2,0,0.4,0,0.5,0c0.4,0,1.9-0.1,4.4-0.3c0-0.7,0-1,0-1.6c0-2.2,0-2.9-0.1-3.6
		H53.5z"/>
	<path fill="#F7F9F9" d="M72.3,2.2c0.7,0.1,1.1,0.1,2.3,0.1c2,0,5.2-0.1,7.3-0.3c0.6,0,0.8-0.1,1.2-0.3l1,1.3
		c-0.3,0.2-0.5,0.3-1.2,1c-3.3,3.2-6.2,5.7-7.9,6.8l0,0.1c1.8-1,3.8-1.5,5.9-1.5c4,0,6.6,2,6.6,5c0,3.7-3.5,6.2-8.8,6.2
		c-3.4,0-5.3-1.2-5.3-3.5c0-1.6,1.5-2.8,3.5-2.8c1.6,0,3,0.7,4,2c0.5,0.7,0.8,1.2,1.1,2.3c2.5-0.7,3.8-2.2,3.8-4.2
		c0-2.3-1.9-3.7-5.2-3.7c-3.5,0-7.3,1.5-10.1,4.1l-1.1-1.5c0.9-0.5,1.7-1.1,3.4-2.4c2.6-2,6.4-5.4,8-7c0.1-0.1,0.1-0.1,0.3-0.3
		c0,0,0,0,0.1-0.1l0.1-0.1l0,0c-0.1,0-0.1,0-0.2,0c-0.8,0.1-3.6,0.3-7.3,0.4c-0.5,0-0.8,0-1.3,0.1L72.3,2.2z M76.8,15.8
		c-1.2,0-1.9,0.6-1.9,1.5c0,0.6,0.3,1.1,1,1.5c0.6,0.3,1.7,0.6,2.7,0.6c0.6,0,0.9,0,1.8-0.2C79.8,17,78.6,15.8,76.8,15.8z"/>
</g>
<path fill="#F7F9F9" d="M96.6,21.3c0,0-2.3-2.9-2.4-5.4c-0.1-1.9,0.4-3.9,0.5-3c0.1,0.5,1.4,2.7,1.4,2.7s2.3-3.2,1.8-2.1
	c-0.4,1.1,0.3,3.4,1,3.5c0.7,0.1,2.8-0.9,2.8-0.9s-0.7,2.6-1.3,3.2c-0.7,0.7-2.2,2.1-2.2,2.1s1.4-0.2,3.7-1c5.3-2,3.3-12.7,3.3-12.7
	s-2.6,3.1-2.4,2.1s-0.4-5.1-0.4-4.7c0,0.1-1.5,4.4-1.6,2.9c-0.2-2.4-3.1-7.4-3.1-7.4s0.2,1.1,0.2,2.7c0,1.7-0.3,3-0.3,3
	s-3-3.8-2.5-2.3c0.2,0.5,1.2,3.1,0.5,4.5c-0.6,1.3-1.5,1.9-1.7,1.8s-0.3-5-0.7-4.3c0,0-1.2,1.5-2,3c-1.2,2.5-1.1,4.4-0.8,6.3
	c0,0,0.4,2.4,2.1,4.2C93.7,20.6,96.6,21.3,96.6,21.3"/>
</svg>
