<?xml version="1.0" encoding="utf-8"?>
<!-- Generator: Adobe Illustrator 17.1.0, SVG Export Plug-In . SVG Version: 6.00 Build 0)  -->
<!DOCTYPE svg PUBLIC "-//W3C//DTD SVG 1.1//EN" "http://www.w3.org/Graphics/SVG/1.1/DTD/svg11.dtd">
<svg version="1.1" id="レイヤー_1" xmlns="http://www.w3.org/2000/svg" xmlns:xlink="http://www.w3.org/1999/xlink" x="0px"
	 y="0px" width="137.6px" height="23px" viewBox="0 0 137.6 23" enable-background="new 0 0 137.6 23" xml:space="preserve">
<path fill="#F7F9F9" d="M125,20.7c0,0-2.2-2.8-2.3-5.1c-0.1-1.8,0.3-3.7,0.5-2.9c0.1,0.5,1.3,2.5,1.3,2.5s2.2-3,1.8-2s0.3,3.3,1,3.3
	c0.7,0.1,2.6-0.8,2.6-0.8s-0.6,2.5-1.2,3.1c-0.7,0.7-2.1,2-2.1,2s1.3-0.2,3.5-1c5-1.9,3.2-12.2,3.2-12.2s-2.5,2.9-2.2,2
	c0.2-0.9-0.4-4.9-0.4-4.5c0,0.1-1.4,4.2-1.5,2.8c-0.2-2.3-2.9-7.1-2.9-7.1s0.1,1,0.1,2.6s-0.3,2.8-0.3,2.8s-2.9-3.7-2.4-2.2
	c0.2,0.5,1.1,2.9,0.5,4.3c-0.6,1.3-1.4,1.8-1.6,1.7c-0.2-0.1-0.3-4.8-0.7-4.1c0,0-1.2,1.5-1.9,2.9c-1.2,2.3-1,4.2-0.8,6
	c0,0,0.4,2.3,2,4C122.3,20,125,20.7,125,20.7"/>
<rect x="124.8" y="-0.6" transform="matrix(-0.7425 0.6698 -0.6698 -0.7425 227.9659 -63.8826)" fill="#A0B8B8" width="3" height="25"/>
<rect x="113.7" y="10.4" transform="matrix(-0.6697 0.7427 -0.7427 -0.6697 219.5331 -73.8419)" fill="#A0B8B8" width="25" height="3"/>
<g>
	<path fill="#F7F9F9" d="M9.3,5.6c-0.1,0.1-0.1,0.1-0.6,1s-1.3,2.2-2,3.2c-0.1,2.2-0.2,3.4-0.4,4.7C7.2,16,8,17,9.2,18.2
		c-0.3,0.4-0.6,0.8-0.9,1.3c-1-1.2-1.8-2.2-2.4-3.3c-0.8,3-1.4,4.4-3,6.4c-0.3-0.6-0.5-0.8-1-1.3c1-1.1,1.5-1.9,2.1-3.4
		c1.1-2.7,1.4-5.4,1.4-12.4c0-2.8,0-3.5-0.2-4.3h1.7C6.8,1.7,6.8,2.2,6.8,3v0.4c0,1.9,0,2.6,0,4.5C7.5,6.8,7.9,6,8.2,4.8L9.3,5.6z
		 M2.3,11.9c0.6-1.7,0.8-3.1,0.8-6.3l1.3,0.3c-0.2,3.3-0.3,4.8-0.9,6.6L2.3,11.9z M7.8,21.8c1.4-1.8,2.1-3,2.7-5.4l1.2,0.5
		c-0.7,2.4-1.3,3.7-2.8,5.8L7.8,21.8z M10.8,9.2c0.2,0.1,0.4,0.3,0.5,0.3c0.9,0.6,0.9,0.7,1.4,1.1c0.4-0.7,0.7-1.2,1-1.8
		c-0.6-0.5-1.2-0.9-2-1.4l0.6-1c0.7,0.4,1.3,0.8,1.8,1.2c0.4-1,0.5-1.6,0.8-2.9h-2.7c-0.8,2.2-1.6,3.5-3.1,5.3c-0.3-0.4-0.4-0.5-1-1
		c1.4-1.5,2.4-3.1,3-5.3c0.3-1.1,0.5-2,0.6-2.7l1.6,0.4C13.1,2,13.1,2,12.7,3.6h1.4c0.7,0,1.2,0,1.7-0.1l0.6,0.6
		c0,0.2-0.1,0.5-0.3,1.3c0,0.2-0.1,0.4-0.2,0.8c0.5,0,0.7,0,1.1,0h1.2C18.3,5,18.4,4,18.4,2.7c0-0.6,0-1-0.1-1.6h1.6
		c-0.1,0.5-0.1,0.8-0.1,1.5c0,1.3-0.1,2.3-0.2,3.5h2.1c0.9,0,1.6,0,2.2-0.1v1.5c-0.6-0.1-1.3-0.1-2.2-0.1h-2c0.9,3,2.3,5.2,4.7,7.1
		c-0.4,0.4-0.7,0.9-1,1.3c-2.2-2-3.5-4-4.4-6.8c-0.8,3.2-2,4.9-4.5,6.8c-0.4-0.5-0.6-0.7-1.1-1.1c1.8-1.1,2.8-2.2,3.6-4
		c0.5-1,0.7-1.8,0.9-3.3h-1.1c-0.6,0-0.9,0-1.4,0c-1.2,3.5-3.1,6.3-6,8.5c-0.3-0.4-0.6-0.7-1.1-1c1.5-1,2.5-1.9,3.6-3.4
		c-0.6-0.6-1.1-0.9-2-1.5L10.8,9.2z M14,22.4c-0.2-2-0.4-3.4-0.9-5.4l1.2-0.2c0.5,1.8,0.8,3.1,1.1,5.4L14,22.4z M18.3,22.4
		c-0.4-2.2-0.9-3.9-1.6-5.7l1.3-0.3c0.9,2.1,1.2,3.1,1.7,5.6L18.3,22.4z M23.1,22.5c-0.9-2.4-1.7-4-2.9-5.7l1.2-0.6
		c1.4,2.1,2,3.2,3,5.6L23.1,22.5z M21.6,1.9c1.1,1.2,1.5,1.8,2.3,3l-1.1,0.8c-0.6-1.2-1.2-2-2.3-3.2L21.6,1.9z"/>
	<path fill="#F7F9F9" d="M31,2.5C31.1,3,31.2,3.2,31.4,4c0.5,1.4,0.7,2.1,1.1,3.2c3.4-1,3.4-1,5.2-1.3c0-3.4,0-3.6-0.1-4.2h1.8
		c-0.1,0.6-0.1,1.4-0.1,3.2c0,0,0,0.5,0,0.8c0.7-0.1,1.2-0.1,1.8-0.1c3.2,0,5.3,1.7,5.3,4.4c0,2.9-2.4,4.9-5.6,4.9
		c-1.3,0-2.6-0.3-4.1-0.9c0-0.2,0-0.4,0-0.4c0-0.3,0-0.4-0.1-1.4c1.3,0.7,2.6,1.1,4,1.1c1,0,2.1-0.3,2.9-0.9
		c0.8-0.6,1.2-1.4,1.2-2.4c0-1.8-1.4-2.9-3.8-2.9c-1.8,0-4.3,0.6-7.8,1.7c1.2,4.1,2.1,7.5,3.1,12c0.1,0.5,0.2,0.6,0.3,1L34.4,22
		c-0.1-2-1.5-7.8-3-13c-0.3,0.2-0.3,0.2-1.3,0.5c-1.4,0.5-2.6,1-3.3,1.3l-0.7-1.7C26.8,9,26.8,9,29.7,8c0.6-0.2,0.8-0.3,1.2-0.4
		c-0.7-2.4-1.3-3.8-1.7-4.6L31,2.5z"/>
	<path fill="#F7F9F9" d="M54.9,2.6c-0.1,0.8-0.1,0.8-0.2,5c3.9-0.2,4.8-0.3,7.8-0.4c0-0.1,0-0.2,0-0.3c0-0.1,0-0.2,0-0.4
		c0-0.3,0-0.5,0-0.8c0-2.2,0-2.9-0.1-3.6h1.8c-0.1,0.5-0.1,1.1-0.1,1.8v1v1.6v0.6c2.4,0,4.2-0.1,5-0.2v1.7c-0.6,0-0.8,0-1.8,0
		c-0.2,0-0.8,0-1.6,0c-0.4,0-0.9,0-1.7,0c0,2-0.2,3.7-0.4,4.7c-0.4,1.4-1.2,2.1-2.4,2.1c-0.9,0-1.9-0.3-3.3-1.1c0-0.4,0-0.5,0-0.7
		c0-0.3,0-0.5,0-1c1.3,0.9,2.4,1.3,3.1,1.3s1-0.4,1.2-1.6c0.2-1.1,0.2-1.8,0.3-3.7c-2.9,0.1-4.6,0.2-7.8,0.4c0,0.1,0,0.2,0,0.3
		s0,0.3,0,0.7s0,0.8,0,1.2c0,3.7,0.1,5.4,0.2,6c0.2,0.8,0.7,1.3,1.6,1.6c0.7,0.3,2.2,0.4,3.7,0.4c2.6,0,5.1-0.3,6.7-0.9l0.2,1.8
		c-0.3,0-0.4,0-1,0.1c-2.2,0.3-4.2,0.5-6.1,0.5c-4.3,0-6.1-0.8-6.7-3c-0.1-0.7-0.2-2.1-0.2-5.5c0-0.1,0-2.2,0-3
		c-2.4,0.2-3.7,0.3-4.8,0.5L48.2,8c0.2,0,0.4,0,0.5,0c0.4,0,1.9-0.1,4.4-0.3c0-0.7,0-1,0-1.6c0-2.2,0-2.9-0.1-3.6L54.9,2.6L54.9,2.6
		z"/>
	<path fill="#F7F9F9" d="M79.3,1.6c-0.2,0.5-0.2,0.6-0.4,1.5c-0.2,0.8-0.3,1.4-0.6,2.6c1.7-0.1,3.2-0.4,4.3-0.8l0.1,1.7
		c-0.3,0-0.3,0-0.8,0.1c-1,0.2-2.5,0.4-3.9,0.5c-0.7,2.6-1.6,4.8-2.7,7c-0.6,1.2-0.8,1.6-1.7,3.1c-0.2,0.3-0.4,0.6-0.5,0.8l-1.6-1
		c0.8-1,1.4-2,2.3-3.7c1.1-2.2,1.8-3.9,2.5-6.2c-0.6,0-1.4,0-1.8,0c-0.4,0-1.2,0-1.6,0c-0.3,0-0.5,0-0.5,0s-0.2,0-0.3,0V5.5
		c0.8,0.1,1.5,0.2,2.9,0.2c0.5,0,1.3,0,1.7,0c0.4-1.4,0.8-3.4,0.8-4.5L79.3,1.6z M90.7,20.3c-0.9-1.2-2.4-2.4-4.2-3.3
		c0,0.4,0,0.5,0,0.8c0,2.5-1.6,3.8-4.6,3.8c-2.9,0-4.7-1.3-4.7-3.5c0-1.3,0.9-2.5,2.2-3c0.8-0.4,1.8-0.5,2.8-0.5
		c0.9,0,1.5,0.1,2.4,0.4c-0.1-1.6-0.2-2.7-0.2-3.3c0-0.9,0-1.4,0.2-2.3l1.6,0.2c-0.2,0.9-0.3,1.4-0.3,2.2c0,1.1,0.1,2.7,0.3,3.6
		c1.9,0.8,3.4,1.8,4.7,2.9c0.3,0.3,0.3,0.3,0.4,0.4L90.7,20.3z M82.3,16c-2,0-3.3,0.8-3.3,2.2c0,1.2,1.2,2,3,2c2.1,0,3-0.8,3-2.6
		c0-0.3,0-1,0-1C83.9,16.1,83.2,16,82.3,16z M90.7,9.4c-2-1.4-3.8-2.4-6.4-3.3l0.9-1.3C88,5.9,89.6,6.7,91.5,8L90.7,9.4z"/>
	<path fill="#F7F9F9" d="M97.2,3.8C97.1,4.5,97,5.3,97,6.7c0,2.6,0.3,5.9,0.6,7.5c0.5,2.4,1.5,4.1,2.4,4.1c0.4,0,0.8-0.4,1.2-1.2
		c0.6-1.2,0.9-2.5,1.2-4.1c0.5,0.6,0.7,0.8,1.4,1.4c-1.2,4.2-2.3,5.8-4,5.8c-1.3,0-2.6-1.3-3.4-3.6c-0.8-2.3-1.2-5.4-1.3-11.3
		c0-0.9,0-1-0.1-1.4L97.2,3.8z M108.8,5.1c1.6,1.8,2.5,3.4,3.4,5.5c0.9,2,1.4,3.7,1.8,6.4l-1.7,0.7c-0.4-4.5-2.2-8.6-5-11.8
		L108.8,5.1z"/>
</g>
</svg>
