<?xml version="1.0" encoding="utf-8"?>
<!-- Generator: Adobe Illustrator 17.1.0, SVG Export Plug-In . SVG Version: 6.00 Build 0)  -->
<!DOCTYPE svg PUBLIC "-//W3C//DTD SVG 1.1//EN" "http://www.w3.org/Graphics/SVG/1.1/DTD/svg11.dtd">
<svg version="1.1" id="レイヤー_1" xmlns="http://www.w3.org/2000/svg" xmlns:xlink="http://www.w3.org/1999/xlink" x="0px"
	 y="0px" width="104.7px" height="24.9px" viewBox="0 0 104.7 24.9" enable-background="new 0 0 104.7 24.9" xml:space="preserve">
<g>
	<path fill="#F7F9F9" d="M37.6,15.3c-1,0-1.4,0-2,0.1v-1.6c0.6,0.1,1,0.1,2,0.1h2.3v-1.1c0-0.8,0-1.2-0.1-1.7h1.6
		c-0.1,0.5-0.1,0.8-0.1,1.7v1h2c1.1,0,1.6,0,2.1-0.1v1.6c-0.7-0.1-1.3-0.1-2.1-0.1h-1.7c1.2,1.9,2.4,3.1,4.2,4.2
		c-0.3,0.4-0.5,0.7-0.8,1.3c-1.5-1.2-2.5-2.3-3.7-4.2c0,0.7,0.1,1.7,0.1,2.3v2.7c0,1.2,0,1.8,0.1,2.4h-1.7c0.1-0.6,0.1-1.2,0.1-2.4
		v-2.6c0-0.8,0-1.5,0.1-2.3c-1.1,2.3-2.1,3.6-4.1,5.2c-0.3-0.7-0.5-0.9-1-1.4c2-1.3,3.3-2.7,4.7-5.4h-2V15.3z M40.1,6.4
		c-0.3,1.5-0.7,2.7-1.3,3.8S37.5,12,36,13.1c-0.3-0.5-0.6-0.8-1-1.2c2.2-1.3,3.2-2.8,3.7-5.4h-1.2c-0.6,0-1.2,0-1.9,0.1V5
		c0.5,0.1,1,0.1,1.9,0.1h1.4c0-0.5,0-0.8,0-1.2c0-0.6,0-1-0.1-1.5h1.6c-0.1,0.4-0.1,0.6-0.1,1.3c0,0.5,0,0.8-0.1,1.4h1.2
		c0.8,0,1.4,0,1.9-0.1c-0.1,0.5-0.1,1-0.1,1.8v3.7c0,0.2,0.1,0.3,0.4,0.3c0.5,0,0.6-0.1,0.6-1.1c0-0.1,0-0.2,0-0.4
		c0.4,0.3,0.7,0.4,1.2,0.5c0,0.7-0.1,1.3-0.2,1.7c-0.2,0.5-0.7,0.6-1.6,0.6c-1.1,0-1.5-0.3-1.5-1.1V6.4H40.1z M52.7,21.3h3.2
		c0.7-0.1,1.1-0.1,1.3-0.1v1.6c-0.6-0.1-1.3-0.1-2.4-0.1h-6.9V24h-1.6c0.1-0.6,0.1-1.3,0.1-2.4V9c-0.2,0.4-0.3,0.5-0.6,0.9
		c-0.3-0.4-0.6-0.6-1.1-1c1.1-1.2,1.5-1.8,2.1-3.1s1.1-2.5,1.3-3.7l1.6,0.5v0.1c-0.1,0.1-0.1,0.1-0.2,0.4c-0.3,0.8-0.9,2.1-1.4,3.2
		h3.2c0.8-1.4,1.2-2.5,1.6-4l1.5,0.4c-0.7,1.8-0.9,2.4-1.6,3.6h1.6c1,0,1.8,0,2.4-0.1v1.6c-0.6-0.1-1.3-0.1-2.4-0.1h-1.7v3.4h1.4
		c1,0,1.7,0,2.2-0.1v1.6c-0.5-0.1-1.2-0.1-2.2-0.1h-1.4v3.6H54c1,0,1.7,0,2.2-0.1v1.6c-0.4-0.1-1.2-0.1-2.2-0.1h-1.3V21.3z
		 M51.2,11.1V7.7h-3.4v3.4H51.2z M47.9,16h3.4v-3.6h-3.4V16z M47.9,21.3h3.4v-4h-3.4V21.3z"/>
	<path fill="#F7F9F9" d="M59.3,9.1c0.9,0,3.4-0.3,5.3-0.6c0.4-1.8,0.7-4.1,0.7-5.1c0,0,0-0.2,0-0.3l1.9,0.2C67,3.8,67,4.2,66.7,5.6
		c-0.1,0.7-0.3,1.6-0.5,2.7c0.6,0,0.9-0.1,1.4-0.1c1.7,0,2.7,0.3,3.5,1c0.8,0.8,1.2,1.9,1.2,3.9c0,3.7-0.6,6.9-1.6,8.3
		c-0.6,0.8-1.2,1.1-2.4,1.1c-1,0-2-0.3-3.6-0.9c0-0.4,0-0.5,0-0.9s0-0.5-0.1-0.9c1.4,0.7,2.7,1.1,3.6,1.1c0.6,0,1.1-0.4,1.4-1.2
		c0.6-1.5,1-4,1-6.7c0-2.5-0.7-3.4-3-3.4c-0.5,0-0.8,0-1.7,0.1c-0.9,3.8-2,6.9-3.6,10.2c-0.3,0.6-0.8,1.6-1.6,2.9l-1.6-1
		c0.7-0.9,1.7-2.5,2.5-4.3c1.1-2.4,1.8-4.5,2.6-7.6c-2.1,0.3-3.2,0.5-3.4,0.6c-0.6,0.1-0.7,0.1-1.4,0.3L59.3,9.1z M75.1,6.9
		c2.4,2.6,3.9,5.1,5,8.5l-1.5,0.9c-0.9-3.3-2.6-6.2-4.9-8.6L75.1,6.9z M76.4,3.6C77.5,4.8,78,5.5,78.9,7l-1.2,0.7
		c-0.7-1.3-1.5-2.3-2.5-3.4L76.4,3.6z M78.6,2.4c1.1,1.2,1.7,1.9,2.5,3.4L80,6.5c-0.7-1.3-1.5-2.3-2.5-3.4L78.6,2.4z"/>
	<path fill="#F7F9F9" d="M85.2,4.4c0.6,0.1,1.2,0.1,2.3,0.1c1.3,0,3.2-0.1,4-0.2c0.4,0,0.6-0.1,0.9-0.3l1.3,1
		c-0.3,0.4-0.4,0.6-1.3,3.5c-0.5,1.6-0.7,2.1-1.1,3.4c2.3,0.2,4.1,0.7,6.6,1.9c0.2-1.3,0.3-2.4,0.3-4.9c0-0.5,0-0.7-0.1-1.2h1.8
		c-0.1,0.4-0.1,0.6-0.1,1.5c-0.1,2.4-0.2,3.7-0.4,5.2c1.3,0.7,2.1,1.1,3.3,1.8c0.2,0.1,0.4,0.2,0.7,0.4l-0.6,1.8
		c-0.7-0.6-2-1.4-3.7-2.4c-0.6,1.7-1.3,3-2.5,4.3c-1.1,1.2-2.4,2.2-3.8,2.9c-0.6-0.6-0.7-0.8-1.3-1.2c1.8-0.8,2.8-1.6,3.9-2.8
		c1.1-1.2,1.9-2.6,2.2-4c-2.2-1.1-4.2-1.7-6.6-2c-0.8,2.3-1.7,4.6-2.3,5.8c-0.9,1.7-1.8,2.4-2.9,2.4c-1.8,0-3.2-1.7-3.2-3.9
		c0-2,1-3.7,2.9-4.8c1.2-0.7,2.4-1,4.3-1c0.8-2.4,1.1-3.3,1.9-6c-1.9,0.1-2.3,0.2-4.5,0.2c-1,0-1.2,0-1.8,0.1L85.2,4.4z M85.2,14.8
		c-0.7,0.7-1.2,1.7-1.2,2.8c0,1.3,0.7,2.3,1.6,2.3c1,0,1.8-1.5,3.6-6.6C87.3,13.4,86.1,13.8,85.2,14.8z"/>
</g>
<path fill="#F7F9F9" d="M11.4,0.9L11.4,0.9L11.4,0.9l-5.9,8l0,0l0,0v15.2h19.4V0.9H11.4z M8.4,7.6l3.7-5.1l1.4,2.6L8.4,7.6z M9,10
	h12.3v1.5H9V10z M9,13.4h12.3v1.5H9V13.4z M9,16.9h12.3v1.5H9V16.9z M9,20.3h12.3v1.5H9V20.3z"/>
</svg>
