<?xml version="1.0" encoding="utf-8"?>
<!-- Generator: Adobe Illustrator 17.1.0, SVG Export Plug-In . SVG Version: 6.00 Build 0)  -->
<!DOCTYPE svg PUBLIC "-//W3C//DTD SVG 1.1//EN" "http://www.w3.org/Graphics/SVG/1.1/DTD/svg11.dtd">
<svg version="1.1" id="レイヤー_1" xmlns="http://www.w3.org/2000/svg" xmlns:xlink="http://www.w3.org/1999/xlink" x="0px"
	 y="0px" width="220.6px" height="24.9px" viewBox="0 0 220.6 24.9" enable-background="new 0 0 220.6 24.9" xml:space="preserve">
<g>
	<path fill="#F7F9F9" d="M39.6,16.2c-0.2,0.1-0.2,0.1-0.5,0.3c-0.6,0.4-1.2,0.7-2.8,1.6c-0.3-0.6-0.5-1-0.9-1.3
		c2.3-0.9,4-1.9,5.8-3.4c1.9-1.5,3.1-2.8,4.2-4.4h1.5c1.1,1.7,2.5,3.1,4.6,4.7c1.7,1.3,3.1,2.1,5.5,3c-0.4,0.5-0.6,0.8-0.9,1.5
		c-1.5-0.8-2.4-1.3-3.4-2v5.4c0,0.8,0,1.5,0.1,2.1h-1.6v-1.2H41.1v1.2h-1.7c0.1-0.7,0.1-1.4,0.1-2.2v-5.3H39.6z M45,3.3
		c0-0.5,0-1-0.2-1.5h1.9c-0.1,0.6-0.1,0.9-0.1,1.5V4h7.1c0.9,0,1.6,0,2.4-0.1c0,0.5-0.1,1-0.1,1.6V7c0,0.7,0,1.2,0.1,1.7h-1.6V5.4
		H37.7v3.3h-1.6c0.1-0.6,0.1-1,0.1-1.7V5.5c0-0.6,0-1.1-0.1-1.6C36.8,4,37.6,4,38.5,4H45V3.3z M43.7,7.2c-1.2,1.4-1.8,2.1-2.9,3
		c-1,0.9-1.7,1.4-3,2.1c-0.4-0.5-0.6-0.7-1.2-1.2c1.2-0.5,1.8-0.9,2.8-1.7c1.2-0.9,1.8-1.6,3-3L43.7,7.2z M51.2,15.2
		c-2.4-1.8-3.4-2.8-5-4.9c-1.1,1.4-1.7,2.1-3,3.2c-0.8,0.7-0.9,0.8-2.2,1.7C41,15.2,51.2,15.2,51.2,15.2z M41.1,21.2h10.1v-4.6H41.1
		V21.2z M49.6,6.5c2,2.3,3.3,3.2,6.2,4.5c-0.4,0.5-0.6,0.7-0.9,1.3c-3-1.6-4.2-2.5-6.5-5L49.6,6.5z"/>
	<path fill="#F7F9F9" d="M67.4,11.1c0.7-0.8,1-1.4,1.3-2c-0.5,0-0.9,0-1.9,0H63c-0.7,0-1.4,0-2,0.1c0.1-0.6,0.1-1.2,0.1-1.9V4.6
		c0-0.7,0-1.3-0.1-2c0.6,0.1,1.2,0.1,2,0.1h3.7c0.9,0,1.5,0,2-0.1c0,0.6-0.1,1.2-0.1,1.9v2.9c0,0.9,0,1.1,0,1.6
		c0.1-0.2,0.1-0.3,0.1-0.5l1.6,0.4c-0.6,0.9-0.8,1.3-1.5,2.2H78c1,0,1.7,0,2.4-0.1v1.6c-0.7-0.1-1.4-0.1-2.4-0.1h-4.8
		c2.2,2,4.5,3.3,7.9,4.2c-0.5,0.6-0.5,0.6-0.8,1.3c-1-0.4-1.4-0.6-2.2-0.9v4.6c0,0.8,0,1.6,0.1,2.1h-1.6v-1.2h-4.7v1.2h-1.5
		c0.1-0.6,0.1-1.1,0.1-1.8v-4.6c0-0.8,0-1.3-0.1-1.9c0.6,0.1,1.2,0.1,2,0.1h2.9c-1.5-0.9-2.7-1.9-3.9-3.2H68
		c-1.1,1.2-2.3,2.2-3.8,3.2H67c0.8,0,1.4,0,2-0.1c-0.1,0.6-0.1,1.1-0.1,1.9v4.2c0,0.7,0,1.3,0.1,1.8h-1.5v-1h-4.3v1.2h-1.6
		c0.1-0.6,0.1-1.3,0.1-2.1v-4.6c-0.7,0.4-1,0.5-1.9,0.9c-0.1-0.4-0.3-0.7-0.8-1.3c3.1-1,5.1-2.2,7.2-4.2h-4.3c-1,0-1.7,0-2.4,0.1
		v-1.5c0.7,0.1,1.3,0.1,2.4,0.1L67.4,11.1L67.4,11.1z M62.5,7.8h4.8V4h-4.8C62.5,4,62.5,7.8,62.5,7.8z M63.1,21.3h4.3v-4.5h-4.3
		C63.1,16.8,63.1,21.3,63.1,21.3z M78.9,7.2c0,0.8,0,1.3,0.1,1.9C78.3,9,77.7,9,76.9,9H73c-0.8,0-1.5,0-2.1,0.1
		C71,8.5,71,8.1,71,7.4V4.6c0-0.7,0-1.3-0.1-1.9c0.6,0.1,1.2,0.1,2,0.1h3.9c0.9,0,1.4,0,2.1-0.1c-0.1,0.6-0.1,1.1-0.1,2L78.9,7.2
		L78.9,7.2z M72.2,21.3h4.7v-4.5h-4.7V21.3z M72.5,7.8h5V4h-5V7.8z"/>
	<path fill="#F7F9F9" d="M98.6,5.1c0-0.2,0-0.3,0-0.5c0-1.3,1.1-2.4,2.5-2.4s2.5,1.1,2.5,2.5s-1.1,2.5-2.5,2.5c-0.2,0-0.3,0-0.5-0.1
		c-0.8,3.1-2,5.7-3.3,7.7c-1.4,2-3.6,4-5.9,5.5C90,21.2,89,21.7,87,22.4c-0.4-0.8-0.6-1-1.2-1.7c2.2-0.6,3.6-1.3,5.4-2.5
		c3.9-2.6,6.2-6.1,7.6-11.4H86.4c-1.2,0-1.9,0-2.7,0.1V5c0.9,0.1,1.4,0.1,2.7,0.1h11.8C98.2,5.1,98.6,5.1,98.6,5.1z M99.6,4.7
		c0,0.8,0.7,1.5,1.5,1.5s1.5-0.6,1.5-1.5s-0.6-1.5-1.5-1.5S99.6,3.9,99.6,4.7z"/>
	<path fill="#F7F9F9" d="M105.8,9.3c0.9,0.1,1.4,0.1,2.8,0.1h12.3c0.9,0,1.2,0,1.6-0.2l0.9,1c-0.2,0.3-0.3,0.5-0.7,1.5
		c-2,5.6-5.4,8.7-11.6,10.8c-0.3-0.7-0.5-1-1-1.7c3.2-0.9,5.3-2,7.1-3.6c1.7-1.6,2.8-3.3,3.9-6.3h-12.5c-1.3,0-2,0-2.8,0.1
		C105.8,11,105.8,9.3,105.8,9.3z M107.8,3.7c0.7,0.1,1.2,0.2,2.5,0.2h8c1.3,0,1.8,0,2.5-0.2v1.8c-0.6-0.1-1.2-0.1-2.5-0.1h-8.1
		c-1.3,0-1.8,0-2.5,0.1L107.8,3.7L107.8,3.7z"/>
	<path fill="#F7F9F9" d="M142,22.1c-1.9-2.4-4.6-5-7.7-7.4c-1.7,1.9-2.9,3-4.6,4.3c-1.7,1.2-2.9,2-4.7,2.9c-0.4-0.7-0.6-1-1.2-1.6
		c1.8-0.7,3-1.4,4.9-2.8c3.8-2.8,6.8-6.6,8.6-10.8c0-0.1,0.1-0.2,0.1-0.3c0-0.1,0-0.1,0.1-0.2c-0.2,0-0.3,0-0.6,0l-8,0.1
		c-1.1,0-1.8,0.1-2.5,0.2V4.6c0.6,0.1,1.1,0.1,1.9,0.1c0.1,0,0.3,0,0.6,0l8.6-0.1c0.8,0,1.1,0,1.5-0.2l1,1c-0.2,0.3-0.4,0.6-0.7,1.2
		c-1.3,3-2.5,4.9-4,6.7c3.1,2.4,5.3,4.3,8,7.2L142,22.1z"/>
	<path fill="#F7F9F9" d="M155.5,11.5c0,0.7-0.1,1.6-0.3,2.5c-0.4,2.8-1.4,4.8-3.2,6.3c-1.1,0.9-2.3,1.6-4.2,2.4
		c-0.3-0.7-0.5-1-1.1-1.6c3.1-1,5.1-2.5,6.1-4.7c0.6-1.2,0.9-3.1,1-5h-6.5c-1.2,0-1.9,0-2.8,0.1V9.8c0.8,0.1,1.4,0.1,2.8,0.1h14
		c1.4,0,1.9,0,2.8-0.1v1.8c-0.8-0.1-1.5-0.1-2.8-0.1C161.3,11.5,155.5,11.5,155.5,11.5z M146.9,3.9c0.8,0.1,1.3,0.2,2.8,0.2h9.3
		c1.5,0,2,0,2.8-0.2v1.8c-0.7-0.1-1.3-0.1-2.7-0.1h-9.4c-1.4,0-2,0-2.7,0.1V3.9H146.9z"/>
	<path fill="#F7F9F9" d="M179.4,8.1c-0.3,0.2-0.3,0.3-0.6,0.6c-1.3,1.3-2.5,2.4-4.8,4.2V21c0,0.9,0,1.5,0.1,2.1h-1.9
		c0.1-0.6,0.1-0.9,0.1-2.1v-7.1c-2.4,1.5-4.4,2.4-7.4,3.3c-0.2-0.6-0.4-0.9-0.8-1.4c2.4-0.6,3.8-1.2,5.6-2.1c2.6-1.3,4.8-3,6.9-5
		c0.7-0.7,1-1,1.3-1.6L179.4,8.1z"/>
	<path fill="#F7F9F9" d="M184.7,8.7c1,1.7,1.5,2.8,2.4,5.3l-1.6,0.6c-0.6-2.1-1.2-3.7-2.3-5.4L184.7,8.7z M198.3,8.6
		c-0.1,0.4-0.1,0.4-0.5,1.9c-0.4,1.7-1.2,3.9-2.1,5.4c-1.7,2.9-4.2,5.1-7.9,6.9c-0.4-0.6-0.6-0.8-1.1-1.3c3.7-1.7,6-3.5,7.6-6.3
		c0.9-1.5,1.6-3.3,2-5.2c0.2-0.8,0.3-1.3,0.3-1.6V8.3c0-0.1,0-0.1,0-0.1L198.3,8.6z M189.6,7.8c1.3,2.3,1.7,3.2,2.3,5.2l-1.6,0.6
		c-0.4-1.7-1.2-3.5-2.2-5.3L189.6,7.8z"/>
	<path fill="#F7F9F9" d="M210.6,2.9c-0.2,0.3-0.2,0.3-0.5,1c-0.6,1.3-0.8,1.7-1.1,2.1c0.3-0.1,0.3-0.1,7.2-0.2c0.8,0,0.9,0,1.2-0.2
		l1,1c-0.2,0.3-0.2,0.3-0.5,1.2c-1,3.4-2.8,6.6-4.8,9c-2.2,2.5-4.8,4.4-8.4,6c-0.4-0.7-0.6-0.9-1.2-1.4c3.6-1.5,6.2-3.3,8.5-6.1
		c1.8-2.2,3.3-5,4.1-8l-8,0.1c-1.5,2.4-3.4,4.5-5.7,6.2c-0.4-0.6-0.6-0.8-1.3-1.2c2.5-1.7,4.4-3.6,6-6.6c0.9-1.6,1.4-2.7,1.5-3.5
		L210.6,2.9z"/>
</g>
<g>
	<path fill="#F7F9F9" d="M23.1,19c0,1-0.8,1.8-1.8,1.8H7.8C6.8,20.8,6,20,6,19v-4.3h2l-3.5-4l-3.5,4h1.9V19c0,2.8,2.3,5.1,5.1,5.1
		h13.4c2.8,0,5.1-2.3,5.1-5.1v-1.5h-3.2V19H23.1z"/>
	<path fill="#F7F9F9" d="M5.9,6c0-1,0.8-1.8,1.8-1.8h13.4c1,0,1.8,0.8,1.8,1.8l0,0h-1.8l3.5,4l3.5-4h-1.9l0,0c0-2.8-2.3-5.1-5.1-5.1
		H7.7C4.9,0.9,2.6,3.2,2.6,6v3.3h3.2L5.9,6L5.9,6z"/>
	<path fill="#F7F9F9" d="M14.5,10.5c-0.6,0-0.9-0.5-0.9-0.9c0-0.6,0.5-0.9,0.9-0.9c0.6,0,0.9,0.5,0.9,0.9S15,10.5,14.5,10.5
		 M17.4,9.6c0-1.6-1.2-2.8-2.8-2.8S11.8,8,11.8,9.6c0,0.3,0.1,0.8,0.2,1.1H9v1.6h5.2c0.1,4.6-5.2,4.1-5.2,4.1v1.7
		c7.2,0,7.2-5.1,7.2-6C16.8,11.5,17.4,10.6,17.4,9.6"/>
	<path fill="#F7F9F9" d="M17.7,13.1v1.5h4.7c-1,1.9-4.7,1.9-4.7,1.9v1.6c0,0,6.5,0.1,6.9-4.9l0,0v-0.1
		C24.6,13.1,17.7,13.1,17.7,13.1z"/>
	<rect x="17.7" y="10.6" fill="#F7F9F9" width="6.9" height="1.6"/>
</g>
</svg>
