<?xml version="1.0" encoding="utf-8"?>
<!-- Generator: Adobe Illustrator 17.1.0, SVG Export Plug-In . SVG Version: 6.00 Build 0)  -->
<!DOCTYPE svg PUBLIC "-//W3C//DTD SVG 1.1//EN" "http://www.w3.org/Graphics/SVG/1.1/DTD/svg11.dtd">
<svg version="1.1" id="レイヤー_1" xmlns="http://www.w3.org/2000/svg" xmlns:xlink="http://www.w3.org/1999/xlink" x="0px"
	 y="0px" width="154.8px" height="24.9px" viewBox="0 -1.6 154.8 24.9" enable-background="new 0 -1.6 154.8 24.9"
	 xml:space="preserve">
<g>
	<path fill="#F7F9F9" d="M4.8,14.8c-0.1,0.1-0.1,0.1-0.3,0.3c-0.4,0.4-0.8,0.7-1.9,1.6c-0.2-0.6-0.4-1-0.6-1.3
		C3.5,14.5,4.7,13.5,6,12c1.4-1.5,2.2-2.8,2.9-4.4H10c0.8,1.7,1.7,3.1,3.2,4.7c1.2,1.3,2.2,2.1,3.8,3c-0.3,0.5-0.4,0.8-0.6,1.5
		c-1.1-0.8-1.7-1.3-2.4-2v5.4c0,0.8,0,1.5,0.1,2.1H13v-1.2H5.9v1.2H4.7c0.1-0.7,0.1-1.4,0.1-2.2V14.8z M8.7,1.9c0-0.5,0-1-0.1-1.5
		h1.3C9.8,0.9,9.8,1.3,9.8,1.9v0.7h5c0.7,0,1.1,0,1.7-0.1c-0.1,0.5-0.1,1-0.1,1.6v1.5c0,0.7,0,1.2,0.1,1.7h-1.1V4H3.6v3.3H2.4
		c0.1-0.6,0.1-1,0.1-1.7V4.1c0-0.6,0-1.1-0.1-1.6c0.5,0.1,1,0.1,1.7,0.1h4.5V1.9z M7.7,5.8c-0.8,1.4-1.2,2.1-2,3
		C4.9,9.8,4.5,10.2,3.6,11c-0.3-0.5-0.4-0.7-0.8-1.2c0.8-0.5,1.3-0.9,2-1.7c0.8-0.9,1.3-1.6,2.1-3L7.7,5.8z M13,13.8
		C11.3,12,10.6,11,9.5,8.9c-0.8,1.4-1.2,2.1-2.1,3.2c-0.6,0.7-0.6,0.8-1.5,1.7H13z M5.9,19.8H13v-4.6H5.9V19.8z M11.9,5.1
		c1.4,2.3,2.3,3.2,4.3,4.5c-0.3,0.5-0.4,0.7-0.6,1.3c-2.1-1.6-2.9-2.5-4.6-5L11.9,5.1z"/>
	<path fill="#F7F9F9" d="M24.3,9.7c0.5-0.8,0.7-1.4,0.9-2c-0.4,0-0.6,0-1.4,0h-2.6c-0.5,0-1,0-1.4,0.1c0-0.6,0.1-1.2,0.1-1.9V3.2
		c0-0.7,0-1.3-0.1-2c0.4,0.1,0.8,0.1,1.4,0.1h2.6c0.6,0,1,0,1.4-0.1c0,0.6-0.1,1.2-0.1,1.9V6c0,0.9,0,1.1,0,1.6
		c0.1-0.2,0.1-0.3,0.1-0.5l1.1,0.4c-0.4,0.9-0.6,1.3-1,2.2h6.5c0.7,0,1.2,0,1.7-0.1v1.6c-0.5-0.1-1-0.1-1.7-0.1h-3.4
		c1.5,2,3.2,3.3,5.6,4.2c-0.3,0.6-0.3,0.6-0.6,1.3c-0.7-0.4-1-0.6-1.5-0.9v4.6c0,0.8,0,1.6,0.1,2.1H31v-1.2h-3.3v1.2h-1.1
		c0-0.6,0.1-1.1,0.1-1.8V16c0-0.8,0-1.3-0.1-1.9c0.4,0.1,0.8,0.1,1.4,0.1h2c-1-0.9-1.9-1.9-2.7-3.2h-2.6c-0.8,1.2-1.6,2.2-2.6,3.2
		H24c0.6,0,1,0,1.4-0.1c-0.1,0.6-0.1,1.1-0.1,1.9v4.2c0,0.7,0,1.3,0.1,1.8h-1.1v-1h-3v1.2h-1.1c0.1-0.6,0.1-1.3,0.1-2.1v-4.6
		c-0.5,0.4-0.7,0.5-1.4,0.9c-0.1-0.4-0.2-0.7-0.6-1.3c2.2-1,3.6-2.2,5.1-4.2h-3c-0.7,0-1.2,0-1.7,0.1V9.5c0.5,0.1,0.9,0.1,1.7,0.1
		H24.3z M20.9,6.4h3.4V2.6h-3.4V6.4z M21.3,19.9h3v-4.5h-3V19.9z M32.4,5.8c0,0.8,0,1.3,0.1,1.9C32,7.6,31.5,7.6,31,7.6h-2.8
		c-0.6,0-1,0-1.4,0.1c0-0.6,0.1-1.1,0.1-1.7V3.2c0-0.7,0-1.3-0.1-1.9c0.4,0.1,0.8,0.1,1.4,0.1H31c0.6,0,1,0,1.5-0.1
		c0,0.6-0.1,1.1-0.1,2V5.8z M27.7,19.9H31v-4.5h-3.3V19.9z M27.9,6.4h3.5V2.6h-3.5V6.4z"/>
	<path fill="#F7F9F9" d="M46.2,3.7c0-0.2,0-0.3,0-0.5c0-1.3,0.8-2.4,1.7-2.4c1,0,1.7,1.1,1.7,2.5s-0.8,2.5-1.7,2.5
		c-0.1,0-0.2,0-0.4-0.1c-0.6,3.1-1.4,5.7-2.3,7.7c-1,2-2.5,4-4.1,5.5c-1,0.9-1.7,1.4-3.1,2.1c-0.3-0.8-0.4-1-0.8-1.7
		c1.5-0.6,2.5-1.3,3.8-2.5c2.8-2.6,4.4-6.1,5.3-11.4h-8.6c-0.9,0-1.3,0-1.9,0.1V3.6c0.6,0.1,1,0.1,1.9,0.1h8.3H46.2z M46.8,3.3
		c0,0.8,0.5,1.5,1,1.5c0.6,0,1-0.6,1-1.5s-0.5-1.5-1-1.5S46.8,2.5,46.8,3.3z"/>
	<path fill="#F7F9F9" d="M51.2,7.9c0.6,0.1,1,0.1,2,0.1h8.6c0.6,0,0.8,0,1.1-0.2l0.6,1c-0.2,0.3-0.2,0.5-0.5,1.5
		c-1.4,5.6-3.7,8.7-8.1,10.8c-0.2-0.7-0.3-1-0.7-1.7c2.3-0.9,3.7-2,5-3.6c1.2-1.6,1.9-3.3,2.7-6.3h-8.8c-0.9,0-1.4,0-1.9,0.1V7.9z
		 M52.6,2.3c0.5,0.1,0.8,0.2,1.8,0.2H60c0.9,0,1.3,0,1.8-0.2v1.8c-0.5-0.1-0.9-0.1-1.7-0.1h-5.6c-0.9,0-1.3,0-1.7,0.1V2.3z"/>
	<path fill="#F7F9F9" d="M76.5,20.7c-1.3-2.4-3.2-5-5.4-7.4c-1.2,1.9-2,3-3.2,4.3c-1.2,1.2-2,2-3.3,2.9c-0.3-0.7-0.4-1-0.8-1.6
		c1.3-0.7,2.1-1.4,3.4-2.8c2.7-2.8,4.8-6.6,6-10.8c0-0.1,0-0.2,0.1-0.3c0-0.1,0-0.1,0-0.2c-0.2,0-0.2,0-0.4,0L67.3,5
		c-0.8,0-1.2,0.1-1.7,0.2l0-1.9c0.5,0.1,0.8,0.1,1.3,0.1c0.1,0,0.2,0,0.4,0l6-0.1c0.6,0,0.8,0,1.1-0.2l0.7,1
		c-0.2,0.3-0.3,0.6-0.5,1.2c-0.9,3-1.7,4.9-2.8,6.7c2.2,2.4,3.7,4.3,5.6,7.2L76.5,20.7z"/>
	<path fill="#F7F9F9" d="M86,10.1c0,0.7-0.1,1.6-0.2,2.5c-0.3,2.8-1,4.8-2.3,6.3c-0.7,0.9-1.6,1.6-3,2.4c-0.2-0.7-0.4-1-0.8-1.6
		c2.2-1,3.6-2.5,4.3-4.7c0.4-1.2,0.6-3.1,0.7-5h-4.6c-0.9,0-1.4,0-1.9,0.1V8.4c0.6,0.1,1,0.1,1.9,0.1H90c1,0,1.4,0,1.9-0.1v1.8
		c-0.6-0.1-1.1-0.1-1.9-0.1H86z M79.9,2.5c0.6,0.1,0.9,0.2,1.9,0.2h6.5c1,0,1.4,0,1.9-0.2v1.8c-0.5-0.1-0.9-0.1-1.9-0.1h-6.6
		c-1,0-1.4,0-1.9,0.1V2.5z"/>
	<path fill="#F7F9F9" d="M102.7,6.7c-0.2,0.2-0.2,0.3-0.4,0.6c-0.9,1.3-1.7,2.4-3.4,4.2v8.1c0,0.9,0,1.5,0.1,2.1h-1.3
		c0-0.6,0.1-0.9,0.1-2.1v-7.1c-1.6,1.5-3.1,2.4-5.2,3.3c-0.2-0.6-0.3-0.9-0.6-1.4c1.7-0.6,2.7-1.2,3.9-2.1c1.8-1.3,3.4-3,4.8-5
		c0.5-0.7,0.7-1,0.9-1.6L102.7,6.7z"/>
	<path fill="#F7F9F9" d="M106.5,7.3c0.7,1.7,1,2.8,1.7,5.3l-1.1,0.6c-0.4-2.1-0.9-3.7-1.6-5.4L106.5,7.3z M115.9,7.2
		c-0.1,0.4-0.1,0.4-0.4,1.9c-0.3,1.7-0.9,3.9-1.5,5.4c-1.2,2.9-3,5.1-5.6,6.9c-0.3-0.6-0.4-0.8-0.8-1.3c2.6-1.7,4.2-3.5,5.3-6.3
		c0.6-1.5,1.1-3.3,1.4-5.2c0.1-0.8,0.2-1.3,0.2-1.6V7c0-0.1,0-0.1,0-0.1L115.9,7.2z M109.9,6.4c0.9,2.3,1.2,3.2,1.6,5.2l-1.1,0.6
		c-0.3-1.7-0.8-3.5-1.5-5.3L109.9,6.4z"/>
	<path fill="#F7F9F9" d="M124.5,1.5c-0.2,0.3-0.2,0.3-0.4,1c-0.4,1.3-0.6,1.7-0.8,2.1c0.2-0.1,0.2-0.1,5.1-0.2c0.6,0,0.6,0,0.9-0.2
		l0.7,1c-0.2,0.3-0.2,0.3-0.3,1.2c-0.7,3.4-1.9,6.6-3.4,9c-1.5,2.5-3.4,4.4-5.8,6c-0.3-0.7-0.4-0.9-0.8-1.4c2.5-1.5,4.3-3.3,5.9-6.1
		c1.3-2.2,2.3-5,2.9-8L122.8,6c-1,2.4-2.4,4.5-4,6.2c-0.3-0.6-0.5-0.8-0.9-1.2c1.8-1.7,3.1-3.6,4.2-6.6c0.6-1.6,1-2.7,1.1-3.5
		L124.5,1.5z"/>
</g>
<path fill="#F7F9F9" d="M150.3,16.6c0,0.9-0.7,1.6-1.6,1.6h-11.8c-0.9,0-1.6-0.7-1.6-1.6v-3.8h1.7l-3.1-3.5l-3.1,3.5h1.7v3.8
	c0,2.5,2,4.5,4.5,4.5h11.8c2.5,0,4.5-2,4.5-4.5v-1.3h-2.8v1.3H150.3z"/>
<path fill="#F7F9F9" d="M135.2,5.2c0-0.9,0.7-1.6,1.6-1.6h11.8c0.9,0,1.6,0.7,1.6,1.6l0,0h-1.6l3.1,3.5l3.1-3.5h-1.7l0,0
	c0-2.5-2-4.5-4.5-4.5h-11.8c-2.5,0-4.5,2-4.5,4.5v2.9h2.8V5.2H135.2z"/>
<path fill="#F7F9F9" d="M142.8,9.1c-0.5,0-0.8-0.4-0.8-0.8c0-0.5,0.4-0.8,0.8-0.8c0.5,0,0.8,0.4,0.8,0.8
	C143.6,8.7,143.2,9.1,142.8,9.1 M145.3,8.3c0-1.4-1.1-2.5-2.5-2.5s-2.5,1.1-2.5,2.5c0,0.3,0.1,0.7,0.2,1h-2.6v1.4h4.6
	c0.1,4.1-4.6,3.6-4.6,3.6v1.5c6.3,0,6.3-4.5,6.3-5.3C144.8,10,145.3,9.2,145.3,8.3"/>
<path fill="#F7F9F9" d="M145.6,11.4v1.3h4.1c-0.9,1.7-4.1,1.7-4.1,1.7v1.4c0,0,5.7,0.1,6.1-4.3l0,0v-0.1H145.6z"/>
<rect x="145.6" y="9.2" fill="#F7F9F9" width="6.1" height="1.4"/>
</svg>
